<?xml version="1.0" standalone="no"?>
<!DOCTYPE svg PUBLIC "-//W3C//DTD SVG 1.1//EN" "http://www.w3.org/Graphics/SVG/1.1/DTD/svg11.dtd" >
<svg xmlns="http://www.w3.org/2000/svg" xmlns:xlink="http://www.w3.org/1999/xlink" version="1.1">
<metadata>
Created by FontForge 20201107 at Fri Feb  7 20:50:21 2020
 By Unknown
Copyright (c) 2020 by Luciano Vergara. All rights reserved.
</metadata>
<defs>
<font id="NeogroteskEss-Bold" horiz-adv-x="0" >
  <font-face 
    font-family="Neogrotesk Ess Bold"
    font-weight="700"
    font-stretch="normal"
    units-per-em="1000"
    panose-1="0 0 8 0 0 0 0 0 0 0"
    ascent="750"
    descent="-250"
    x-height="500"
    cap-height="690"
    bbox="-794 -250 1379 985"
    underline-thickness="50"
    underline-position="-100"
    unicode-range="U+000D-F8FF"
  />
<missing-glyph horiz-adv-x="587" 
d="M515 690v-690h-443v690h443zM190 582v-379l151 379h-151zM397 108v373l-149 -373h149z" />
    <glyph glyph-name=".notdef" horiz-adv-x="587" 
d="M515 690v-690h-443v690h443zM190 582v-379l151 379h-151zM397 108v373l-149 -373h149z" />
    <glyph glyph-name=".null" 
 />
    <glyph glyph-name="nonmarkingreturn" unicode="&#xd;" horiz-adv-x="250" 
 />
    <glyph glyph-name="space" unicode=" " horiz-adv-x="225" 
 />
    <glyph glyph-name="exclam" unicode="!" horiz-adv-x="280" 
d="M77 240l-15 450h156l-15 -450h-126zM55 71q0 39 24.5 60t60.5 21t60.5 -21t24.5 -60t-24.5 -60t-60.5 -21t-60.5 21t-24.5 60z" />
    <glyph glyph-name="quotedbl" unicode="&#x22;" horiz-adv-x="438" 
d="M45 593v97h135v-97l-24 -196h-87zM258 593v97h135v-97l-24 -196h-87z" />
    <glyph glyph-name="numbersign" unicode="#" horiz-adv-x="787" 
d="M623 420l-33 -124h106l-33 -120h-106l-51 -186h-141l51 186h-133l-51 -186h-151l51 186h-106l33 120h106l33 124h-105l32 120h106l44 160h151l-44 -160h133l44 160h141l-44 -160h106l-33 -120h-106zM482 420h-133l-33 -124h133z" />
    <glyph glyph-name="dollar" unicode="$" horiz-adv-x="606" 
d="M576 197q0 -80 -52.5 -136.5t-164.5 -67.5v-105h-104v104q-116 11 -172 69.5t-56 154.5h138q0 -53 37 -85t110 -31q131 2 131 87q0 64 -83 83l-130 30q-99 23 -142.5 72t-43.5 129q0 37 12.5 70.5t38.5 59.5t65.5 44t94.5 23v102h104v-104q103 -14 153 -71.5t50 -148.5
h-135q0 55 -35.5 85t-102.5 29q-58 -1 -85.5 -23.5t-27.5 -60.5q0 -26 16 -46t59 -31l147 -36q94 -23 136 -72t42 -124z" />
    <glyph glyph-name="percent" unicode="%" horiz-adv-x="986" 
d="M637 700h131l-420 -710h-131zM401 485q0 -51 -14.5 -91t-39.5 -67.5t-59.5 -42t-73.5 -14.5q-41 0 -75.5 13.5t-59 40.5t-38.5 67t-14 92q0 51 14.5 90.5t40 67t59.5 41.5t74 14q41 0 75 -14t58.5 -41t38.5 -66t14 -90zM273 482q0 55 -14.5 84t-44.5 29q-29 0 -44 -28.5
t-15 -82.5q0 -113 59 -113q30 0 44.5 28.5t14.5 82.5zM959 209q0 -51 -14.5 -91t-39.5 -67.5t-59.5 -42t-73.5 -14.5q-41 0 -75.5 13.5t-59 40.5t-38.5 67t-14 92q0 51 14.5 90.5t40 67t59.5 41.5t74 14q41 0 75 -14t58.5 -41t38.5 -66t14 -90zM831 206q0 55 -14.5 84
t-44.5 29q-29 0 -44 -28.5t-15 -82.5q0 -113 59 -113q30 0 44.5 28.5t14.5 82.5z" />
    <glyph glyph-name="ampersand" unicode="&#x26;" horiz-adv-x="669" 
d="M680 12v-12h-142l-42 40q-44 -26 -97.5 -41t-119.5 -15q-56 0 -102 11.5t-78.5 34t-50.5 56t-18 76.5q0 36 11.5 64.5t31.5 52t46 42.5t54 35q-37 40 -56.5 77t-19.5 85q0 44 16 78t44 57t65.5 35t79.5 12q44 0 80 -12.5t61.5 -35t40 -53.5t14.5 -69q0 -35 -12 -63.5
t-32.5 -52t-47.5 -42.5t-57 -36l159 -155q23 30 36.5 64.5t18.5 66.5h110q-11 -56 -33.5 -107t-60.5 -94zM210 521q0 -30 19 -58t45 -55q47 25 80.5 52t33.5 64q0 35 -26.5 53.5t-61.5 18.5t-62.5 -19t-27.5 -56zM287 81q41 0 74.5 8t61.5 22l-176 170q-44 -24 -74 -51
t-30 -64q0 -39 37.5 -62t106.5 -23z" />
    <glyph glyph-name="quotesingle" unicode="'" horiz-adv-x="225" 
d="M45 593v97h135v-97l-24 -196h-87z" />
    <glyph glyph-name="parenleft" unicode="(" horiz-adv-x="394" 
d="M375 -180q-77 0 -139.5 30t-107 88.5t-69 145t-24.5 200.5q0 111 26 197.5t71.5 146.5t108 91t134.5 31v-119q-45 0 -83 -21t-66 -63.5t-43.5 -107.5t-15.5 -154q0 -88 15.5 -153t43.5 -108t66 -64t83 -21v-119z" />
    <glyph glyph-name="parenright" unicode=")" horiz-adv-x="393" 
d="M19 -61q45 0 83 21t66 64t43.5 108t15.5 153q0 89 -15.5 154t-43.5 107.5t-66 63.5t-83 21v119q72 0 134.5 -31t108 -91t71.5 -146.5t26 -197.5q0 -114 -24.5 -200.5t-69 -145t-107 -88.5t-139.5 -30v119z" />
    <glyph glyph-name="asterisk" unicode="*" horiz-adv-x="473" 
d="M310 472l91 -103l-108 -70l-56 126l-57 -126l-108 70l91 103l-135 28l45 121l120 -67l-21 136h129l-21 -136l120 67l45 -121z" />
    <glyph glyph-name="plus" unicode="+" horiz-adv-x="540" 
d="M511 193h-176v-183h-130v183h-176v116h176v183h130v-183h176v-116z" />
    <glyph glyph-name="comma" unicode="," horiz-adv-x="244" 
d="M206 71q0 -15 -5.5 -33t-11.5 -31l-72 -157h-79v15l34 141q-14 8 -24 25t-10 40q0 39 25 60t59 21t59 -21t25 -60z" />
    <glyph glyph-name="hyphen" unicode="-" horiz-adv-x="480" 
d="M427 338v-116h-374v116h374z" />
    <glyph glyph-name="period" unicode="." horiz-adv-x="240" 
d="M36 71q0 39 25 60t59 21t59 -21t25 -60t-25 -60t-59 -21t-59 21t-25 60z" />
    <glyph glyph-name="slash" unicode="/" horiz-adv-x="491" 
d="M338 700h135l-320 -710h-135z" />
    <glyph glyph-name="zero" unicode="0" horiz-adv-x="696" 
d="M654 348q0 -85 -23 -151.5t-64 -112.5t-97.5 -70t-124.5 -24t-124 23t-95.5 68t-61.5 111t-22 153q0 85 23 151t64 111.5t98 69t124 23.5q68 0 124 -23.5t95.5 -68.5t61.5 -110.5t22 -149.5zM506 344q0 118 -41.5 176t-116.5 58t-116.5 -57.5t-41.5 -174.5
q0 -118 41.5 -176t116.5 -58t116.5 57.5t41.5 174.5z" />
    <glyph glyph-name="one" unicode="1" horiz-adv-x="403" 
d="M329 690v-690h-142v524q-39 -27 -81 -48t-86 -36v125q52 22 103 54t103 71h103z" />
    <glyph glyph-name="two" unicode="2" horiz-adv-x="632" 
d="M324 335q51 38 76.5 71t25.5 75q0 44 -27 70.5t-83 26.5q-60 0 -93 -34.5t-33 -94.5h-145q0 57 20 103t56.5 79t88 51t114.5 18q58 0 104 -16t78.5 -44t49.5 -65.5t18 -80.5q2 -74 -38 -131.5t-110 -110.5l-110 -82q-17 -12 -40 -27.5t-45 -29.5q38 2 86.5 4.5t93.5 2.5
h187v-120h-560v121z" />
    <glyph glyph-name="three" unicode="3" horiz-adv-x="639" 
d="M467 355q66 -16 99.5 -58t33.5 -101q0 -46 -20.5 -84t-58.5 -65t-91 -42t-118 -15t-117 16t-88.5 46.5t-56 74t-19.5 98.5h145q0 -57 35.5 -87t99.5 -30q66 0 103.5 25t37.5 69q0 48 -36 69.5t-95 21.5h-102v104h100q56 0 85.5 25t29.5 63q0 42 -27.5 70t-86.5 28
q-66 0 -97 -30t-31 -86h-143q0 55 19 98t54.5 73t86.5 46t114 16q60 0 107 -16t79.5 -42t49.5 -60.5t17 -71.5q0 -54 -30 -93t-79 -62z" />
    <glyph glyph-name="four" unicode="4" horiz-adv-x="662" 
d="M630 133h-97v-133h-142v133h-371v119l343 438h170v-438h97v-119zM391 252v191q0 19 1 48.5t2 58.5q-16 -23 -33 -47.5t-29 -40.5l-105 -135q-14 -19 -31 -39.5t-32 -37.5q23 1 49.5 1.5t52.5 0.5h125z" />
    <glyph glyph-name="five" unicode="5" horiz-adv-x="613" 
d="M346 458q47 0 89 -15.5t74.5 -45t51.5 -72.5t19 -97q0 -57 -20 -101.5t-56 -74.5t-85.5 -46t-109.5 -16q-124 0 -194 52.5t-70 149.5h145q4 -41 32 -62.5t82 -21.5q58 0 93 31t35 89q0 56 -33 87.5t-89 31.5q-51 0 -82.5 -20t-48.5 -45h-129l27 408h462v-120h-340
l-14 -168q32 31 72.5 43.5t88.5 12.5z" />
    <glyph glyph-name="six" unicode="6" horiz-adv-x="651" 
d="M376 435q49 0 92 -14t74.5 -41.5t49.5 -68t18 -92.5q0 -50 -19.5 -92t-55 -72.5t-84 -47.5t-107.5 -17q-146 0 -223.5 90.5t-77.5 260.5q0 86 21.5 153t60.5 112.5t93.5 69.5t120.5 24q58 0 104.5 -16.5t79.5 -46.5t52 -71t21 -91h-144q-3 51 -34 77t-84 26
q-41 0 -68 -18t-43.5 -48.5t-23.5 -70.5t-8 -84q26 35 74.5 56.5t110.5 21.5zM332 110q60 0 95 30.5t35 74.5q0 46 -30.5 75t-93.5 29q-22 0 -43.5 -7t-40.5 -19.5t-33 -31t-20 -42.5q8 -48 42.5 -78.5t88.5 -30.5z" />
    <glyph glyph-name="seven" unicode="7" horiz-adv-x="558" 
d="M541 690v-101q-114 -125 -177 -274.5t-63 -314.5h-158q6 159 63.5 302.5t157.5 271.5q-30 -2 -74 -3t-90 -1h-185v120h526z" />
    <glyph glyph-name="eight" unicode="8" horiz-adv-x="650" 
d="M325 700q62 0 110.5 -16t82.5 -42t51.5 -60.5t17.5 -71.5q0 -53 -31.5 -91.5t-82.5 -59.5q68 -18 103 -62.5t35 -100.5q0 -48 -20.5 -86t-58 -65t-90.5 -41t-117 -14t-117 14t-90.5 41t-58 65t-20.5 86q0 56 35 100.5t103 62.5q-51 21 -82.5 59.5t-31.5 91.5
q0 37 17.5 71.5t51.5 60.5t82.5 42t110.5 16zM324 404q59 0 90 25.5t31 63.5q0 42 -29 70t-91 28t-91 -28t-29 -70q0 -38 30 -63.5t89 -25.5zM325 100q64 0 101 25t37 73q0 51 -37.5 75t-99.5 24t-100.5 -24t-38.5 -75q0 -48 37 -73t101 -25z" />
    <glyph glyph-name="nine" unicode="9" horiz-adv-x="651" 
d="M307 700q146 0 223.5 -90.5t77.5 -260.5q0 -86 -21.5 -153t-60.5 -112.5t-93.5 -69.5t-120.5 -24q-58 0 -104.5 16.5t-79.5 46.5t-52 71.5t-21 90.5h144q3 -51 34 -77t84 -26q41 0 68 18t43.5 48.5t23.5 70.5t8 84q-26 -35 -74.5 -56.5t-110.5 -21.5q-49 0 -92 14
t-74.5 41.5t-49.5 68t-18 92.5q0 50 19.5 92t55 72.5t84.5 47.5t107 17zM313 371q22 0 44 7t40.5 19.5t32.5 31t20 42.5q-8 48 -42.5 78.5t-88.5 30.5q-60 0 -95 -30.5t-35 -74.5q0 -46 30.5 -75t93.5 -29z" />
    <glyph glyph-name="colon" unicode=":" horiz-adv-x="274" 
d="M53 429q0 39 25 60t59 21t59 -21t25 -60t-25 -60t-59 -21t-59 21t-25 60zM53 71q0 39 25 60t59 21t59 -21t25 -60t-25 -60t-59 -21t-59 21t-25 60z" />
    <glyph glyph-name="semicolon" unicode=";" horiz-adv-x="274" 
d="M53 429q0 39 25 60t59 21t59 -21t25 -60t-25 -60t-59 -21t-59 21t-25 60zM221 71q0 -15 -5.5 -33t-11.5 -31l-72 -157h-79v15l34 141q-14 8 -24 25t-10 40q0 39 25 60t59 21t59 -21t25 -60z" />
    <glyph glyph-name="less" unicode="&#x3c;" horiz-adv-x="542" 
d="M492 384l-300 -134l300 -134v-126l-468 222v76l468 222v-126z" />
    <glyph glyph-name="equal" unicode="=" horiz-adv-x="576" 
d="M519 447v-112h-462v112h462zM519 218v-112h-462v112h462z" />
    <glyph glyph-name="greater" unicode="&#x3e;" horiz-adv-x="542" 
d="M518 288v-76l-468 -222v126l300 134l-300 134v126z" />
    <glyph glyph-name="question" unicode="?" horiz-adv-x="575" 
d="M408 505q0 36 -28 61.5t-86 27.5q-62 2 -98.5 -31t-36.5 -94h-135q0 50 17 92.5t51 73t85 48t118 17.5q65 0 112 -16.5t78 -44.5t46 -64t15 -74q0 -71 -33 -114.5t-86 -74.5q-37 -22 -53 -44t-16 -66l-138 1q0 37 4 65.5t15 51t32 40.5t54 36q45 23 64 47t19 62zM197 71
q0 39 26 60t65 21t65 -21t26 -60t-26 -60t-65 -21t-65 21t-26 60z" />
    <glyph glyph-name="at" unicode="@" horiz-adv-x="964" 
d="M541 700q78 0 148 -23t123.5 -68t85 -110.5t31.5 -150.5q0 -69 -17 -127.5t-48.5 -101t-76.5 -66.5t-102 -24q-50 0 -84 22.5t-46 54.5q-53 -55 -137 -55q-35 0 -64.5 13.5t-51 38t-33.5 58t-12 73.5q0 54 17.5 102t47.5 84t71 56.5t89 20.5q82 0 121 -48l7 39h104
l-50 -291q-1 -6 -2 -13t-1 -14q0 -20 10 -33t33 -13q28 0 48.5 17.5t33.5 47t19 67t6 76.5q0 68 -22.5 117t-61.5 80.5t-90 47t-108 15.5q-84 0 -153.5 -27.5t-120 -76t-78.5 -116t-28 -148.5q0 -67 21.5 -117t59.5 -83.5t89 -50.5t111 -17q48 0 94 7t90 18v-110
q-45 -11 -97 -17t-104 -6q-81 0 -151 24.5t-121 71.5t-80.5 114.5t-29.5 153.5q0 107 39 197t107.5 154.5t162 100.5t201.5 36zM445 144q32 0 62.5 16t50.5 42l26 150q-11 24 -35.5 38t-56.5 14t-57 -13t-41.5 -34.5t-25 -50t-8.5 -60.5q0 -48 24 -75t61 -27z" />
    <glyph glyph-name="A" unicode="A" horiz-adv-x="713" 
d="M502 167h-297l-61 -167h-148l271 690h179l271 -690h-154zM463 276l-64 175q-12 34 -24 69.5t-21 63.5q-9 -28 -21 -63.5t-24 -69.5l-64 -175h218z" />
    <glyph glyph-name="B" unicode="B" horiz-adv-x="693" 
d="M532 374q128 -35 128 -174q0 -94 -65.5 -147t-185.5 -53h-337v690h308q122 0 182 -44.5t60 -125.5q0 -103 -90 -146zM214 575v-165h152q58 0 84 21.5t26 66.5q0 43 -30.5 60t-86.5 17h-145zM398 115q55 0 84.5 24.5t29.5 72.5q0 91 -116 91h-182v-188h184z" />
    <glyph glyph-name="C" unicode="C" horiz-adv-x="726" 
d="M698 252q-6 -63 -34.5 -111.5t-72 -82t-99 -51t-117.5 -17.5q-69 0 -130.5 23t-107.5 68t-73 111t-27 153q0 85 28 151t75.5 111.5t109.5 69t130 23.5q62 0 118 -17t98.5 -50.5t69.5 -82.5t31 -112h-145q-4 35 -19.5 61.5t-39 44t-53.5 26t-63 8.5q-38 0 -73 -14.5
t-61.5 -43.5t-42 -72.5t-15.5 -101.5t15.5 -102t42 -73.5t61.5 -44t73 -14.5q70 0 118 35.5t57 104.5h146z" />
    <glyph glyph-name="D" unicode="D" horiz-adv-x="726" 
d="M362 690q74 0 134 -22.5t102.5 -66t66 -107.5t23.5 -146t-24.5 -147t-68 -109.5t-104.5 -68t-135 -23.5h-284v690h290zM355 120q87 0 136 55.5t49 168.5q0 114 -49 170t-136 56h-141v-450h141z" />
    <glyph glyph-name="E" unicode="E" horiz-adv-x="617" 
d="M576 119v-119h-504v690h498v-119h-356v-160h322v-116h-322v-176h362z" />
    <glyph glyph-name="F" unicode="F" horiz-adv-x="590" 
d="M214 571v-182h320v-115h-320v-274h-142v690h491v-119h-349z" />
    <glyph glyph-name="G" unicode="G" horiz-adv-x="737" 
d="M688 83q-60 -45 -138.5 -69t-153.5 -24q-82 0 -148.5 22.5t-113 67t-72 110.5t-25.5 153q0 85 28 151.5t75 112t108.5 69.5t129.5 24q63 0 118 -17t96 -49.5t66 -80t29 -109.5h-146q-6 69 -51.5 102.5t-114.5 33.5q-38 0 -72.5 -15t-60.5 -44.5t-41.5 -73.5t-15.5 -103
t15 -103t42 -73t64 -43.5t80 -14.5q41 0 81 7.5t78 27.5v110h-136v104h279v-276z" />
    <glyph glyph-name="H" unicode="H" horiz-adv-x="757" 
d="M685 690v-690h-142v294h-329v-294h-142v690h142v-276h329v276h142z" />
    <glyph glyph-name="I" unicode="I" horiz-adv-x="286" 
d="M72 690h142v-690h-142v690z" />
    <glyph glyph-name="J" unicode="J" horiz-adv-x="612" 
d="M547 690v-423q0 -72 -21.5 -124.5t-57.5 -86.5t-84 -50t-101 -16q-57 0 -105.5 16.5t-84 50.5t-56 85.5t-20.5 121.5h141q0 -43 10 -72t27 -47t39.5 -25.5t48.5 -7.5q60 0 91 38t31 128v412h142z" />
    <glyph glyph-name="K" unicode="K" horiz-adv-x="695" 
d="M523 0l-309 332v-332h-142v690h142v-316l310 316h174l-332 -330l342 -360h-185z" />
    <glyph glyph-name="L" unicode="L" horiz-adv-x="576" 
d="M564 120v-120h-492v690h142v-570h350z" />
    <glyph glyph-name="M" unicode="M" horiz-adv-x="895" 
d="M254 381q-14 41 -30 90.5t-27 86.5q2 -38 4 -90t2 -94l2 -374h-133v690h196l155 -436q8 -23 16.5 -53t16.5 -57q8 27 16 57t16 53l152 436h183v-690h-133l2 375q0 35 2 83t4 86q-12 -37 -27 -82.5t-27 -80.5l-137 -381h-117z" />
    <glyph glyph-name="N" unicode="N" horiz-adv-x="760" 
d="M688 690v-690h-173l-253 420q-15 24 -32 55.5t-33 60.5q2 -32 3.5 -67.5t1.5 -67.5l4 -401h-134v690h174l250 -415q15 -26 33.5 -58.5t35.5 -63.5q-3 35 -5 71.5t-2 62.5l-4 403h134z" />
    <glyph glyph-name="O" unicode="O" horiz-adv-x="781" 
d="M745 348q0 -85 -28 -151.5t-77 -112.5t-113.5 -70t-138.5 -24t-138 23t-111.5 68t-75 111t-27.5 153q0 85 28.5 151t77 111.5t113.5 69t138 23.5q74 0 138 -23.5t111.5 -68.5t75 -110.5t27.5 -149.5zM597 344q0 59 -16.5 102.5t-44.5 73t-65.5 44t-79.5 14.5t-80 -14.5
t-66 -43.5t-44.5 -72.5t-16.5 -101.5t16.5 -102t44.5 -73.5t66 -44t80 -14.5t79.5 14.5t65.5 43.5t44.5 72.5t16.5 101.5z" />
    <glyph glyph-name="P" unicode="P" horiz-adv-x="699" 
d="M401 690q135 0 205.5 -55.5t70.5 -162.5t-74 -166.5t-208 -59.5h-181v-246h-142v690h329zM391 366q64 0 101.5 22.5t37.5 79.5t-36.5 79.5t-102.5 22.5h-177v-204h177z" />
    <glyph glyph-name="Q" unicode="Q" horiz-adv-x="780" 
d="M591 76q45 7 89.5 12t81.5 5v-126l-374 23q-72 0 -136 23t-112 68t-76 111t-28 153q0 85 29 151t78 111.5t114 69t136 23.5q72 0 136 -23.5t112 -68.5t76 -110.5t28 -149.5q0 -35 -7.5 -72t-25.5 -72.5t-47.5 -68t-73.5 -59.5zM184 346q0 -60 16.5 -104.5t45 -74t66 -44
t79.5 -14.5q99 0 152.5 60.5t53.5 174.5q0 58 -16.5 102t-45 73t-65.5 44t-79 15t-79.5 -14.5t-66 -43.5t-45 -72.5t-16.5 -101.5z" />
    <glyph glyph-name="R" unicode="R" horiz-adv-x="698" 
d="M632 121q5 -23 16.5 -54.5t23.5 -54.5v-12h-142q-13 20 -21 42t-13 39l-27 103q-4 17 -12 32t-22 25.5t-36.5 16.5t-56.5 6h-128v-264h-142v690h309q131 0 198 -52.5t67 -148.5q0 -57 -33 -101t-88 -68q35 -17 56 -47t32 -73zM359 378q66 0 103 23t37 78q0 54 -34.5 73.5
t-95.5 19.5h-155v-194h145z" />
    <glyph glyph-name="S" unicode="S" horiz-adv-x="672" 
d="M419 405q51 -7 91 -21.5t68.5 -38.5t43.5 -59t15 -84q0 -46 -18 -85t-55 -67.5t-93.5 -44t-133.5 -15.5q-157 0 -233 60.5t-76 165.5h144q0 -50 41 -80.5t120 -29.5q82 1 119.5 24.5t37.5 61.5q0 23 -8.5 37.5t-23 23.5t-34 14t-41.5 8l-111 16q-115 16 -169 69.5
t-54 134.5q0 43 16.5 80.5t50.5 65t87 43.5t125 16q146 0 218.5 -61t72.5 -163h-141q0 52 -39.5 80.5t-108.5 27.5q-74 -1 -104.5 -25t-30.5 -58q0 -37 30 -54t81 -25z" />
    <glyph glyph-name="T" unicode="T" horiz-adv-x="635" 
d="M625 570h-236v-570h-143v570h-236v120h615v-120z" />
    <glyph glyph-name="U" unicode="U" horiz-adv-x="734" 
d="M670 295q0 -79 -25 -136.5t-67 -95t-97.5 -55.5t-116.5 -18t-115.5 17t-95.5 53t-65 93.5t-24 138.5v398h142v-383q0 -55 13 -92t35.5 -60t51.5 -33t61 -10t61 10t51.5 32.5t35.5 59.5t13 91v385h142v-395z" />
    <glyph glyph-name="V" unicode="V" horiz-adv-x="697" 
d="M-2 690h153l138 -397q21 -60 37 -109.5t27 -83.5q11 34 27 83.5t36 109.5l137 397h146l-258 -690h-185z" />
    <glyph glyph-name="W" unicode="W" horiz-adv-x="1007" 
d="M693 279q11 -46 20.5 -90t15.5 -77q5 33 13.5 77t20.5 91l102 410h135l-186 -690h-178l-102 407q-12 48 -19 88t-11 64q-4 -24 -11.5 -64t-19.5 -90l-99 -405h-176l-195 690h147l101 -410q11 -45 20 -88t15 -75q6 32 14.5 75t19.5 88l98 410h173z" />
    <glyph glyph-name="X" unicode="X" horiz-adv-x="685" 
d="M691 0h-177l-106 165q-22 34 -40 64.5t-29 48.5q-10 -18 -28 -49t-41 -65l-109 -164h-167l244 350l-232 340h178l98 -153q20 -31 37 -61.5t27 -47.5q10 18 27.5 48t37.5 61l100 153h168l-232 -333z" />
    <glyph glyph-name="Y" unicode="Y" horiz-adv-x="666" 
d="M405 271v-271h-143v268l-267 422h174l116 -190q17 -29 30.5 -56t21.5 -45q8 18 22.5 45t31.5 56l116 190h164z" />
    <glyph glyph-name="Z" unicode="Z" horiz-adv-x="647" 
d="M291 199q-16 -20 -36 -42.5t-37 -41.5q28 2 60.5 3t57.5 1h279v-119h-583v107l311 374q17 21 40 46.5t41 45.5q-25 -1 -58 -1.5t-64 -0.5h-260v119h568v-107z" />
    <glyph glyph-name="bracketleft" unicode="[" horiz-adv-x="399" 
d="M381 -61v-119h-311v930h305v-119h-175v-692h181z" />
    <glyph glyph-name="backslash" unicode="\" horiz-adv-x="491" 
d="M338 -10l-320 710h135l320 -710h-135z" />
    <glyph glyph-name="bracketright" unicode="]" horiz-adv-x="399" 
d="M329 -180h-311v119h181v692h-175v119h305v-930z" />
    <glyph glyph-name="asciicircum" unicode="^" horiz-adv-x="529" 
d="M500 399v-15h-122l-113 200l-114 -200h-122v15l175 311h121z" />
    <glyph glyph-name="underscore" unicode="_" horiz-adv-x="539" 
d="M539 -60v-100h-539v100h539z" />
    <glyph glyph-name="grave" unicode="`" horiz-adv-x="600" 
d="M196 730l119 -140v-15h-117l-148 140v15h146z" />
    <glyph glyph-name="a" unicode="a" horiz-adv-x="548" 
d="M490 110q0 -26 3.5 -51.5t10.5 -46.5v-12h-137q-5 15 -8 32.5t-4 34.5q-27 -35 -72.5 -56t-101.5 -21q-35 0 -62.5 10t-47 28t-30 42t-10.5 52q0 57 36.5 97t123.5 53l159 24v25q0 39 -18 60t-61 21q-42 0 -62.5 -20t-20.5 -57h-135q0 41 14.5 74.5t43 58.5t69.5 38.5
t93 13.5q109 0 163 -53t54 -139v-208zM219 85q15 0 33 5t36 16t34 29t28 45v35l-119 -20q-63 -10 -63 -59q0 -24 14 -37.5t37 -13.5z" />
    <glyph glyph-name="b" unicode="b" horiz-adv-x="615" 
d="M358 510q43 0 83 -14.5t71 -46t50 -80.5t19 -118t-19 -118.5t-50.5 -81t-72 -46.5t-84.5 -15q-51 0 -91 20t-66 57v-67h-136v750h140v-312q26 35 65.5 53.5t90.5 18.5zM321 110q20 0 40 7t37 23.5t27.5 43.5t10.5 66t-10.5 66t-27.5 43.5t-37 23.5t-40 7q-40 0 -74 -24.5
t-45 -68.5v-94q11 -44 45 -68.5t74 -24.5z" />
    <glyph glyph-name="c" unicode="c" horiz-adv-x="563" 
d="M292 -10q-57 0 -104.5 17.5t-82 50.5t-54 81.5t-19.5 110.5t20.5 110.5t56 81.5t83 50.5t100.5 17.5q52 0 95.5 -14.5t75.5 -41.5t51 -64t20 -82h-139q-5 45 -32 69t-72 24q-23 0 -44 -8t-36.5 -25.5t-25 -45.5t-9.5 -69q0 -79 31.5 -116.5t80.5 -37.5q47 0 76 24t33 69
h137q-1 -46 -19 -83t-50 -63.5t-76 -41t-97 -14.5z" />
    <glyph glyph-name="d" unicode="d" horiz-adv-x="615" 
d="M553 114q0 -23 3 -51.5t11 -50.5v-12h-137q-6 17 -8.5 35t-3.5 35q-26 -38 -67 -59t-94 -21q-43 0 -83 15t-71 46.5t-50 81t-19 118.5t19 118t51 80.5t73 46t84 14.5q48 0 87 -16t65 -48v304h140v-636zM294 110q40 0 74 24.5t45 68.5v94q-11 44 -45 68.5t-74 24.5
q-19 0 -39.5 -7t-37.5 -23.5t-27.5 -43.5t-10.5 -66t10.5 -66t27.5 -43.5t37.5 -23.5t39.5 -7z" />
    <glyph glyph-name="e" unicode="e" horiz-adv-x="571" 
d="M537 208h-360q0 -52 33.5 -82.5t81.5 -30.5q45 0 71 18.5t28 49.5h138q-2 -37 -18.5 -68.5t-47 -54.5t-73.5 -36.5t-99 -13.5q-57 0 -104.5 16.5t-82 49.5t-53.5 81.5t-19 112.5q0 63 21 111.5t57 81.5t83.5 50t99.5 17q55 0 100 -16.5t77 -49.5t49.5 -82t17.5 -113v-41z
M291 402q-44 0 -73 -25t-36 -76h209q-5 54 -31.5 77.5t-68.5 23.5z" />
    <glyph glyph-name="f" unicode="f" horiz-adv-x="380" 
d="M310 640q-34 0 -54 -22t-20 -67v-51h132v-116h-132v-384h-140v384h-67v116h67v58q0 102 52 152t135 50q51 0 95 -10v-116q-31 6 -68 6z" />
    <glyph glyph-name="g" unicode="g" horiz-adv-x="558" 
d="M374 68q83 -8 125.5 -40t42.5 -98q0 -72 -71 -114t-208 -42q-129 0 -193.5 48t-64.5 129h141q0 -36 27 -58.5t93 -22.5q69 0 101.5 15.5t32.5 36.5q0 22 -17 31t-51 12l-108 9q-51 5 -83 29.5t-32 75.5q0 24 8.5 43.5t22.5 34.5q-50 21 -80.5 62.5t-30.5 102.5
q0 45 19 80t50.5 59t74 36.5t88.5 12.5q20 0 40 -2.5t38 -7.5h198v-112q-31 3 -72 11q12 -17 18 -39t6 -45q0 -41 -19 -74.5t-50.5 -57t-73.5 -36.5t-89 -13h-11t-11 1q-14 -13 -14 -29q0 -24 36 -27zM259 408q-38 0 -65 -21.5t-27 -63.5q0 -44 27 -65.5t65 -21.5t65 21.5
t27 63.5q0 44 -27 65.5t-65 21.5z" />
    <glyph glyph-name="h" unicode="h" horiz-adv-x="592" 
d="M352 510q92 0 137.5 -54.5t45.5 -142.5v-313h-140v295q0 51 -24.5 73t-65.5 22q-38 0 -65 -24.5t-38 -68.5v-297h-140v750h140v-310q25 34 63 52t87 18z" />
    <glyph glyph-name="i" unicode="i" horiz-adv-x="264" 
d="M41 658q0 39 26 60t65 21t65 -21t26 -60t-26 -60t-65 -21t-65 21t-26 60zM62 500h140v-500h-140v500z" />
    <glyph glyph-name="j" unicode="j" horiz-adv-x="272" 
d="M48 658q0 39 26 60t65 21t65 -21t26 -60t-26 -60t-65 -21t-65 21t-26 60zM210 -57q0 -89 -46.5 -128t-125.5 -39q-21 0 -42.5 2.5t-41.5 7.5v116q12 -3 29 -4.5t31 -1.5q26 0 41 14.5t15 47.5v542h140v-557z" />
    <glyph glyph-name="k" unicode="k" horiz-adv-x="554" 
d="M391 0l-189 242v-242h-140v750h140v-459l182 209h170l-206 -230l214 -270h-171z" />
    <glyph glyph-name="l" unicode="l" horiz-adv-x="264" 
d="M62 750h140v-750h-140v750z" />
    <glyph glyph-name="m" unicode="m" horiz-adv-x="883" 
d="M655 510q86 0 128.5 -53.5t42.5 -140.5v-316h-140v298q0 50 -22 71t-57 21t-58 -23.5t-34 -64.5v-302h-140v298q0 50 -22 71t-58 21q-35 0 -58.5 -23.5t-34.5 -64.5v-302h-140v500h136v-64q23 35 60 54.5t85 19.5q56 0 91.5 -22t55.5 -63q25 42 68 63.5t97 21.5z" />
    <glyph glyph-name="n" unicode="n" horiz-adv-x="600" 
d="M359 510q94 0 139 -54t45 -142v-314h-140v295q0 51 -23.5 73.5t-64.5 22.5q-42 0 -72 -25t-41 -69v-297h-140v500h136v-66q25 37 65.5 56.5t95.5 19.5z" />
    <glyph glyph-name="o" unicode="o" horiz-adv-x="598" 
d="M566 252q0 -62 -22 -110.5t-59 -82.5t-85.5 -51.5t-102.5 -17.5t-102 17t-84.5 50t-57.5 81.5t-21 111.5q0 62 22 110.5t59 81.5t85.5 50.5t102.5 17.5t102 -17t84.5 -50t57.5 -81t21 -110zM422 249q0 35 -10 61.5t-27 44t-39 26.5t-47 9t-47 -8.5t-39 -26t-27 -43.5
t-10 -61t10 -61.5t27 -44t39 -26.5t47 -9t47 8.5t39 26t27 43.5t10 61z" />
    <glyph glyph-name="p" unicode="p" horiz-adv-x="615" 
d="M356 510q43 0 83.5 -15t72 -46.5t50.5 -81t19 -118.5t-19 -118t-50.5 -80.5t-72 -46t-83.5 -14.5q-102 0 -154 66v-270h-140v714h136v-68q26 38 66 58t92 20zM321 110q20 0 40 7t37 23.5t27.5 43.5t10.5 66t-10.5 66t-27.5 43.5t-37 23.5t-40 7q-40 0 -74 -24.5
t-45 -68.5v-106q12 -35 45.5 -58t73.5 -23z" />
    <glyph glyph-name="q" unicode="q" horiz-adv-x="615" 
d="M553 500v-714h-140v278q-27 -36 -68 -55t-92 -19q-43 0 -82.5 14.5t-70 46t-48.5 80.5t-18 118t19 118.5t50.5 81t72 46.5t83.5 15q52 0 92 -20t66 -57v67h136zM294 110q40 0 74 24.5t45 68.5v94q-11 44 -45 68.5t-74 24.5q-19 0 -39.5 -7t-37.5 -23.5t-27.5 -43.5
t-10.5 -66t10.5 -66t27.5 -43.5t37.5 -23.5t39.5 -7z" />
    <glyph glyph-name="r" unicode="r" horiz-adv-x="380" 
d="M331 510h17t17 -2v-135q-14 2 -27.5 3t-26.5 1q-37 0 -66 -25t-43 -79v-273h-140v500h136v-71q23 39 57 60t76 21z" />
    <glyph glyph-name="s" unicode="s" horiz-adv-x="525" 
d="M331 300q85 -13 123.5 -49.5t38.5 -98.5q0 -33 -14 -62.5t-42 -51.5t-71 -35t-102 -13q-63 0 -107.5 13t-73 36.5t-42 56t-13.5 71.5h138q0 -32 23 -54.5t74 -21.5q92 1 92 50q0 41 -61 48l-93 12q-79 11 -118 50t-39 103q0 31 12.5 59t39 49.5t67.5 34.5t97 13
q57 0 99 -13.5t69 -37t40 -55.5t13 -70h-135q0 35 -22.5 55.5t-65.5 19.5q-44 -1 -62.5 -15.5t-18.5 -36.5q0 -18 13.5 -28t46.5 -15z" />
    <glyph glyph-name="t" unicode="t" horiz-adv-x="392" 
d="M293 110q23 0 43 1.5t36 5.5v-116q-23 -5 -49.5 -8t-61.5 -3q-36 0 -67 9.5t-54 31.5t-36.5 57.5t-13.5 86.5v209h-67v116h67v148h140v-148h136v-116h-136v-202q0 -38 17 -55t46 -17z" />
    <glyph glyph-name="u" unicode="u" horiz-adv-x="595" 
d="M533 114q0 -23 3 -51.5t11 -50.5v-12h-137q-6 17 -8.5 35t-4.5 36q-26 -38 -68 -59.5t-98 -21.5q-85 0 -129.5 48.5t-44.5 135.5v326h140v-303q0 -46 21.5 -66.5t60.5 -20.5q38 0 70 23.5t44 65.5v301h140v-386z" />
    <glyph glyph-name="v" unicode="v" horiz-adv-x="548" 
d="M155 500l87 -278q8 -26 17.5 -60.5t17.5 -63.5q8 29 17.5 63.5t17.5 60.5l88 278h146l-187 -500h-170l-186 500h152z" />
    <glyph glyph-name="w" unicode="w" horiz-adv-x="835" 
d="M576 226q8 -32 14 -66.5t10 -55.5q4 21 11 55.5t15 66.5l70 274h135l-153 -500h-165l-76 312q-7 28 -12 52.5t-9 42.5q-3 -18 -8 -42.5t-11 -52.5l-72 -312h-170l-149 500h139l70 -274q8 -30 15.5 -65.5t11.5 -56.5q4 21 10.5 55.5t13.5 66.5l61 274h185z" />
    <glyph glyph-name="x" unicode="x" horiz-adv-x="547" 
d="M549 0h-171l-57 98q-14 23 -26.5 47t-21.5 41q-9 -17 -22.5 -40.5t-27.5 -47.5l-60 -98h-162l178 255l-168 245h171l46 -78q11 -19 24 -43.5t23 -43.5q8 17 21.5 41.5t27.5 45.5l48 78h162l-166 -237z" />
    <glyph glyph-name="y" unicode="y" horiz-adv-x="547" 
d="M547 500l-198 -500l-52 -115q-25 -56 -67.5 -82.5t-112.5 -26.5q-15 0 -35 1.5t-36 3.5v104q14 -3 29 -4t26 -1q26 0 48.5 10.5t36.5 39.5l23 48l-209 522h152l81 -235q5 -13 11 -32t12 -39.5t11.5 -41t10.5 -38.5q5 18 11 39t12 41t12 39t10 32l78 235h146z" />
    <glyph glyph-name="z" unicode="z" horiz-adv-x="510" 
d="M286 191q-18 -20 -40.5 -43t-39.5 -40q23 1 55 2t59 1h157v-111h-444v103l179 205q18 20 40 43.5t39 40.5q-26 -1 -59 -2t-60 -1h-129v111h427v-103z" />
    <glyph glyph-name="braceleft" unicode="{" horiz-adv-x="426" 
d="M245 16q0 -39 14.5 -58t55.5 -19h89v-119h-143q-37 0 -64.5 11.5t-45.5 32t-27 48.5t-9 60v180q0 41 -21 55.5t-52 14.5h-29v127h29q31 0 52 14.5t21 55.5v179q0 32 9 60t27 48.5t45.5 32t64.5 11.5h143v-129h-89q-41 0 -55.5 -19t-14.5 -58v-163q0 -33 -14 -59.5
t-43 -36.5q29 -9 43 -35.5t14 -59.5v-174z" />
    <glyph glyph-name="bar" unicode="|" horiz-adv-x="270" 
d="M70 780h130v-1030h-130v1030z" />
    <glyph glyph-name="braceright" unicode="}" horiz-adv-x="426" 
d="M181 190q0 33 14 59.5t43 35.5q-29 10 -43 36.5t-14 59.5v163q0 39 -14.5 58t-55.5 19h-89v129h143q37 0 64.5 -11.5t45.5 -32t27 -48.5t9 -60v-179q0 -41 21 -55.5t52 -14.5h29v-127h-29q-31 0 -52 -14.5t-21 -55.5v-180q0 -32 -9 -60t-27 -48.5t-45.5 -32t-64.5 -11.5
h-143v119h89q41 0 55.5 19t14.5 58v174z" />
    <glyph glyph-name="asciitilde" unicode="~" horiz-adv-x="592" 
d="M50 199q0 51 11 85.5t30 56t44 31t53 9.5q32 0 59.5 -9.5t51.5 -21t45.5 -21t39.5 -9.5q23 0 35.5 15t12.5 46h114q0 -51 -11 -85.5t-30 -56t-44 -31t-53 -9.5t-54.5 9.5t-51 21.5t-47.5 21.5t-44 9.5q-47 0 -47 -62h-114z" />
    <glyph glyph-name="exclamdown" unicode="&#xa1;" horiz-adv-x="280" 
d="M55 619q0 39 24.5 60t60.5 21t60.5 -21t24.5 -60t-24.5 -60t-60.5 -21t-60.5 21t-24.5 60zM77 450h126l15 -450h-156z" />
    <glyph glyph-name="cent" unicode="&#xa2;" horiz-adv-x="565" 
d="M291 190q51 0 83.5 24.5t36.5 72.5h126q-1 -40 -15.5 -73t-40 -58.5t-60 -42.5t-76.5 -24v-122h-104v122q-94 14 -150 80t-56 176q0 54 15.5 97.5t43.5 76t65.5 53t81.5 28.5v123h104v-122q42 -6 77 -23t60 -43t39.5 -59.5t15.5 -72.5h-126q-5 48 -35.5 72.5t-81.5 24.5
q-26 0 -49 -8t-40.5 -26t-28 -47t-10.5 -71q0 -81 35 -119.5t90 -38.5z" />
    <glyph glyph-name="sterling" unicode="&#xa3;" horiz-adv-x="626" 
d="M212 115q17 1 38 3q18 1 41.5 1.5t52.5 0.5h242v-120h-543v120h23q21 0 28.5 13t7.5 33v127h-56v114h56v58q0 109 63.5 172t178.5 63q61 0 107.5 -15.5t77.5 -43t47 -66t16 -84.5h-140q0 42 -25 66t-76 24q-52 0 -79.5 -27.5t-27.5 -92.5v-54h226v-114h-226v-84
q0 -24 -5 -41.5t-11 -29.5q-7 -13 -16 -23z" />
    <glyph glyph-name="currency" unicode="&#xa4;" horiz-adv-x="575" 
d="M500 333q0 -29 -7 -55t-20 -49l61 -61l-80 -81l-61 61q-23 -13 -50 -20t-56 -7t-56 7t-50 19l-60 -60l-80 81l59 59q-13 23 -20 50t-7 56q0 58 28 105l-60 60l80 81l61 -61q47 26 105 26q29 0 55.5 -7t49.5 -20l62 62l80 -81l-61 -61q13 -23 20 -49t7 -55zM287 226
q45 0 74 31t29 76t-29 75.5t-74 30.5t-74.5 -30.5t-29.5 -75.5t29.5 -76t74.5 -31z" />
    <glyph glyph-name="yen" unicode="&#xa5;" horiz-adv-x="686" 
d="M465 386h136v-92h-186v-69h186v-92h-186v-133h-143v133h-186v92h186v69h-186v92h136l-196 304h174l91 -164q16 -28 31 -57t24 -47q10 18 25 47t31 57l94 164h164z" />
    <glyph glyph-name="brokenbar" unicode="&#xa6;" horiz-adv-x="270" 
d="M70 780h130v-410h-130v410zM70 160h130v-410h-130v410z" />
    <glyph glyph-name="section" unicode="&#xa7;" horiz-adv-x="707" 
d="M570 126q40 -20 68.5 -56t28.5 -94q0 -50 -22.5 -87.5t-64 -62.5t-99 -37.5t-128.5 -12.5q-80 0 -141 16.5t-102 45.5t-62 70t-21 90h141q0 -59 47 -86.5t136 -27.5q79 0 124.5 21.5t45.5 63.5q0 37 -35.5 56t-97.5 26l-134 14q-106 11 -155.5 53.5t-49.5 108.5
q0 52 26.5 90t70.5 63q-75 47 -75 133q0 85 71.5 136t202.5 51q72 0 126 -16t90 -44.5t54 -67.5t18 -85h-141q0 50 -37.5 77.5t-110.5 27.5q-56 0 -92.5 -17.5t-36.5 -55.5q0 -23 13 -37t32 -22t41.5 -11.5t41.5 -6.5l114 -15q54 -7 91 -22.5t60 -37.5t33 -48.5t10 -56.5
q0 -47 -21.5 -80t-59.5 -56zM193 255q0 -25 14 -40.5t34.5 -24t43 -11.5t40.5 -5l92 -8q7 -1 14.5 -1.5t16.5 -2.5q26 13 42 31.5t16 43.5t-14.5 40.5t-35 24.5t-42.5 12.5t-36 5.5l-62 8q-19 2 -36.5 5t-34.5 8q-26 -17 -39 -40t-13 -46z" />
    <glyph glyph-name="dieresis" unicode="&#xa8;" horiz-adv-x="600" 
d="M93 657q0 38 24 58t56 20t56 -20t24 -58q0 -37 -24 -57t-56 -20t-56 20t-24 57zM336 657q0 38 24 58t56 20t56 -20t24 -58q0 -37 -24 -57t-56 -20t-56 20t-24 57z" />
    <glyph glyph-name="copyright" unicode="&#xa9;" horiz-adv-x="766" 
d="M730 348q0 -85 -28.5 -151.5t-77.5 -112.5t-112.5 -70t-134.5 -24q-69 0 -131 23t-108.5 68t-74 111t-27.5 153q0 85 28.5 151t77 111.5t112 69t133.5 23.5q69 0 131.5 -23.5t109.5 -68.5t74.5 -110.5t27.5 -149.5zM640 344q0 68 -21.5 118.5t-57.5 84.5t-82.5 50.5
t-96.5 16.5t-96 -16.5t-81.5 -49.5t-57 -83.5t-21.5 -118.5t21.5 -119t57 -84.5t81.5 -50t96 -16.5t96.5 16t82.5 49t57.5 83.5t21.5 119.5zM560 293q-3 -33 -19 -59t-40 -44t-55 -27.5t-65 -9.5q-38 0 -72.5 12.5t-60 36.5t-40.5 60t-15 83q0 46 15.5 82t42 60.5t61 37
t72.5 12.5q35 0 65.5 -9t54.5 -27t38.5 -44t17.5 -60h-91q-4 32 -29 47t-58 15q-39 0 -68 -28t-29 -85q0 -58 29 -86.5t68 -28.5q35 0 58.5 16t28.5 46h91z" />
    <glyph glyph-name="ordfeminine" unicode="&#xaa;" horiz-adv-x="461" 
d="M404 378q0 -18 3 -39.5t9 -38.5v-10h-117q-4 11 -6 25l-4 28q-21 -28 -56 -44.5t-80 -16.5q-56 0 -88 30.5t-32 75.5q0 43 28 76.5t102 44.5l122 18v20q0 29 -13.5 45t-45.5 16q-29 0 -44 -15t-15 -42h-115q0 64 46 105.5t131 41.5q88 0 131.5 -43t43.5 -111v-166z
M186 361q22 0 51.5 16.5t47.5 56.5v26l-88 -15q-48 -7 -48 -45q0 -18 10 -28.5t27 -10.5z" />
    <glyph glyph-name="guillemotleft" unicode="&#xab;" horiz-adv-x="595" 
d="M161 252l143 -204h-153l-115 158v92l115 158h153zM424 252l143 -204h-153l-115 158v92l115 158h153z" />
    <glyph glyph-name="registered" unicode="&#xae;" horiz-adv-x="766" 
d="M387 700q69 0 131.5 -23.5t109.5 -68.5t74.5 -110.5t27.5 -149.5q0 -85 -28.5 -151.5t-77.5 -112.5t-112.5 -70t-134.5 -24q-69 0 -131 23t-108.5 68t-74 111t-27.5 153q0 85 28.5 151t77 111.5t112 69t133.5 23.5zM382 76q50 0 96.5 16t82.5 49t57.5 83.5t21.5 119.5
q0 68 -21.5 118.5t-57.5 84.5t-82.5 50.5t-96.5 16.5t-96 -16.5t-81.5 -49.5t-57 -83.5t-21.5 -118.5t21.5 -119t57 -84.5t81.5 -50t96 -16.5zM542 221q3 -12 8.5 -25t12.5 -26v-7h-88q-7 11 -11.5 23t-7.5 22l-13 39q-5 17 -20 27.5t-53 10.5h-55v-122h-89v364h184
q69 0 104 -28t35 -79q0 -35 -17 -59.5t-48 -37.5q35 -16 47 -60zM378 360q37 0 58.5 11t21.5 36q0 24 -20 34.5t-55 10.5h-68v-92h63z" />
    <glyph glyph-name="macron" unicode="&#xaf;" horiz-adv-x="600" 
d="M390 693v-100h-340v100h340z" />
    <glyph glyph-name="degree" unicode="&#xb0;" horiz-adv-x="409" 
d="M205 374q-37 0 -69.5 12t-56 34t-37 53t-13.5 68q0 38 13.5 68.5t37 52t56 33.5t69.5 12t69 -12t55.5 -33.5t37 -52t13.5 -68.5q0 -37 -13.5 -68t-37 -53t-55.5 -34t-69 -12zM205 474q26 0 45 17.5t19 49.5q0 31 -19 48.5t-45 17.5q-27 0 -46 -17.5t-19 -48.5
q0 -32 19 -49.5t46 -17.5z" />
    <glyph glyph-name="plusminus" unicode="&#xb1;" horiz-adv-x="570" 
d="M526 409v-116h-176v-183h-130v183h-176v116h176v183h130v-183h176zM44 70h482v-116h-482v116z" />
    <glyph glyph-name="acute" unicode="&#xb4;" horiz-adv-x="600" 
d="M315 715l-148 -140h-117v15l119 140h146v-15z" />
    <glyph glyph-name="paragraph" unicode="&#xb6;" horiz-adv-x="725" 
d="M644 -214h-112v792h-95v-792h-112v440h-38q-125 0 -193.5 62.5t-68.5 177.5q0 109 65.5 166.5t190.5 57.5h363v-904z" />
    <glyph glyph-name="periodcentered" unicode="&#xb7;" horiz-adv-x="252" 
d="M42 337q0 39 25 60t59 21t59 -21t25 -60t-25 -60t-59 -21t-59 21t-25 60z" />
    <glyph glyph-name="cedilla" unicode="&#xb8;" horiz-adv-x="600" 
d="M203 -40q38 -3 66 -24t28 -62q0 -45 -30.5 -71.5t-99.5 -26.5q-37 0 -61.5 8t-39 20.5t-20.5 28.5t-6 31h87q0 -11 12 -18t29 -7t29.5 6.5t12.5 23.5q0 30 -35 30q-11 0 -19 -3l-59 32l31 84h93z" />
    <glyph glyph-name="ordmasculine" unicode="&#xba;" horiz-adv-x="489" 
d="M460 492q0 -49 -17.5 -88t-47.5 -66t-69.5 -41.5t-82.5 -14.5t-82 13.5t-68.5 40t-46.5 65t-17 89.5q0 50 17.5 88.5t47.5 65t69.5 40.5t82.5 14q44 0 82.5 -14t68 -40t46.5 -64.5t17 -87.5zM338 489q0 54 -27.5 81t-65.5 27t-66 -26.5t-28 -79.5q0 -54 28 -81t66 -27
t65.5 26.5t27.5 79.5z" />
    <glyph glyph-name="guillemotright" unicode="&#xbb;" horiz-adv-x="595" 
d="M296 206l-115 -158h-153l143 204l-143 204h153l115 -158v-92zM559 298v-92l-115 -158h-153l143 204l-143 204h153z" />
    <glyph glyph-name="onequarter" unicode="&#xbc;" horiz-adv-x="869" 
d="M673 700l-420 -710h-131l420 710h131zM113 276v275q-42 -29 -87 -46v110q29 15 59 34.5t60 40.5h91v-414h-123zM842 158v-92h-52v-66h-123v66h-212l1 98l191 250h143v-256h52zM667 247q0 11 0.5 24.5t1.5 27.5q-8 -11 -15 -21.5t-14 -18.5l-50 -65q-13 -17 -29 -37
q11 0 23.5 0.5t21.5 0.5h61v89z" />
    <glyph glyph-name="onehalf" unicode="&#xbd;" horiz-adv-x="899" 
d="M673 700l-420 -710h-131l420 710h131zM113 276v275q-42 -29 -87 -46v110q29 15 59 34.5t60 40.5h91v-414h-123zM868 98v-98h-352v80l161 131q29 23 41.5 37.5t12.5 32.5q0 17 -10.5 29t-33.5 12t-36 -16.5t-13 -42.5h-118q0 71 47 114t126 43t122 -36t43 -94
q0 -27 -13 -52.5t-35.5 -50t-53 -47.5t-65.5 -44q15 1 31 1.5t32 0.5h114z" />
    <glyph glyph-name="threequarters" unicode="&#xbe;" horiz-adv-x="974" 
d="M793 700l-420 -710h-131l420 710h131zM394 392q0 -54 -49.5 -88t-134.5 -34q-88 0 -135.5 37.5t-47.5 106.5h125q0 -24 16 -36t42 -12q25 0 40.5 11t15.5 31t-14 30t-40 10h-51v74h51q26 0 37.5 11t11.5 28q0 15 -10.5 27.5t-36.5 12.5q-27 0 -38 -14t-11 -33h-124
q0 69 45.5 105.5t130.5 36.5q79 0 122 -33t43 -81q0 -32 -18 -54.5t-48 -36.5q42 -11 60 -37.5t18 -61.5zM947 158v-92h-52v-66h-123v66h-212l1 98l191 250h143v-256h52zM772 247q0 11 0.5 24.5t1.5 27.5q-8 -11 -15 -21.5t-14 -18.5l-50 -65q-13 -17 -29 -37q11 0 23.5 0.5
t21.5 0.5h61v89z" />
    <glyph glyph-name="questiondown" unicode="&#xbf;" horiz-adv-x="576" 
d="M379 619q0 -39 -26 -60t-65 -21t-65 21t-26 60t26 60t65 21t65 -21t26 -60zM168 185q0 -36 28 -61.5t86 -27.5q62 -2 98.5 31t36.5 94h135q0 -50 -17 -92.5t-51 -73t-85 -48t-118 -17.5q-64 0 -111.5 17t-78.5 44.5t-46 63.5t-15 74q0 71 33.5 114.5t85.5 74.5
q37 22 53 44t16 66l138 -1q0 -37 -4 -65t-15 -50.5t-32 -41t-54 -36.5q-45 -23 -64 -47t-19 -62z" />
    <glyph glyph-name="Agrave" unicode="&#xc0;" horiz-adv-x="713" 
d="M300 754l-148 120v15h146l119 -120v-15h-117zM502 167h-297l-61 -167h-148l271 690h179l271 -690h-154zM463 276l-64 175q-12 34 -24 69.5t-21 63.5q-9 -28 -21 -63.5t-24 -69.5l-64 -175h218z" />
    <glyph glyph-name="Aacute" unicode="&#xc1;" horiz-adv-x="713" 
d="M414 754h-117v15l119 120h146v-15zM502 167h-297l-61 -167h-148l271 690h179l271 -690h-154zM463 276l-64 175q-12 34 -24 69.5t-21 63.5q-9 -28 -21 -63.5t-24 -69.5l-64 -175h218z" />
    <glyph glyph-name="Acircumflex" unicode="&#xc2;" horiz-adv-x="713" 
d="M302 754h-120v15l121 120h109l121 -120v-15h-120l-55 52zM502 167h-297l-61 -167h-148l271 690h179l271 -690h-154zM463 276l-64 175q-12 34 -24 69.5t-21 63.5q-9 -28 -21 -63.5t-24 -69.5l-64 -175h218z" />
    <glyph glyph-name="Atilde" unicode="&#xc3;" horiz-adv-x="713" 
d="M296 802q-39 0 -39 -48h-92q0 39 9.5 65.5t26 42.5t37.5 23t44 7q27 0 48 -8t38 -18t31 -18t26 -8q18 0 29 11.5t11 36.5h92q0 -40 -9.5 -66.5t-26 -42.5t-37.5 -22.5t-44 -6.5q-24 0 -43.5 8t-37 18t-33 18t-30.5 8zM502 167h-297l-61 -167h-148l271 690h179l271 -690
h-154zM463 276l-64 175q-12 34 -24 69.5t-21 63.5q-9 -28 -21 -63.5t-24 -69.5l-64 -175h218z" />
    <glyph glyph-name="Adieresis" unicode="&#xc4;" horiz-adv-x="713" 
d="M236 743q-32 0 -56 20t-24 57q0 38 24 58t56 20t56 -20t24 -58q0 -37 -24 -57t-56 -20zM479 743q-32 0 -56 20t-24 57q0 38 24 58t56 20t56 -20t24 -58q0 -37 -24 -57t-56 -20zM502 167h-297l-61 -167h-148l271 690h179l271 -690h-154zM463 276l-64 175q-12 34 -24 69.5
t-21 63.5q-9 -28 -21 -63.5t-24 -69.5l-64 -175h218z" />
    <glyph glyph-name="Aring" unicode="&#xc5;" horiz-adv-x="713" 
d="M502 167h-297l-61 -167h-148l270 688q-22 17 -33 42t-11 56q0 55 35 90t101 35t100.5 -35t34.5 -90q0 -65 -46 -100l270 -686h-154zM358 832q-21 0 -32.5 -13t-11.5 -33t11.5 -33.5t32.5 -13.5q20 0 31.5 13.5t11.5 33.5t-11.5 33t-31.5 13zM463 276l-64 175
q-12 34 -24 69.5t-21 63.5q-9 -28 -21 -63.5t-24 -69.5l-64 -175h218z" />
    <glyph glyph-name="AE" unicode="&#xc6;" horiz-adv-x="1092" 
d="M1051 119v-119h-504v204h-261l-140 -204h-160l474 690h585v-119h-356v-160h322v-116h-322v-176h362zM547 311v279q-26 -39 -55 -83t-53 -79l-80 -117h188z" />
    <glyph glyph-name="Ccedilla" unicode="&#xc7;" horiz-adv-x="725" 
d="M697 252q-6 -54 -27.5 -97.5t-56 -76t-78.5 -53.5t-95 -30l-12 -35q38 -3 66 -24t28 -62q0 -45 -30.5 -71.5t-99.5 -26.5q-37 0 -61.5 8t-39 20.5t-20.5 28.5t-6 31h87q0 -11 12 -18t29 -7t29.5 6.5t12.5 23.5q0 30 -35 30q-11 0 -19 -3l-59 32l23 63q-64 4 -120.5 29.5
t-98.5 70t-66 108.5t-24 146q0 85 28 151t75.5 111.5t109.5 69t130 23.5q62 0 118 -17t98.5 -50.5t69.5 -82.5t31 -112h-145q-4 35 -19.5 61.5t-39 44t-53.5 26t-63 8.5q-38 0 -73 -14.5t-61.5 -43.5t-42 -72.5t-15.5 -101.5t15.5 -102t42 -73.5t61.5 -44t73 -14.5
q70 0 118 35.5t57 104.5h146z" />
    <glyph glyph-name="Egrave" unicode="&#xc8;" horiz-adv-x="617" 
d="M274 754l-148 120v15h146l119 -120v-15h-117zM576 119v-119h-504v690h498v-119h-356v-160h322v-116h-322v-176h362z" />
    <glyph glyph-name="Eacute" unicode="&#xc9;" horiz-adv-x="617" 
d="M388 754h-117v15l119 120h146v-15zM576 119v-119h-504v690h498v-119h-356v-160h322v-116h-322v-176h362z" />
    <glyph glyph-name="Ecircumflex" unicode="&#xca;" horiz-adv-x="617" 
d="M276 754h-120v15l121 120h109l121 -120v-15h-120l-55 52zM576 119v-119h-504v690h498v-119h-356v-160h322v-116h-322v-176h362z" />
    <glyph glyph-name="Edieresis" unicode="&#xcb;" horiz-adv-x="617" 
d="M210 743q-32 0 -56 20t-24 57q0 38 24 58t56 20t56 -20t24 -58q0 -37 -24 -57t-56 -20zM453 743q-32 0 -56 20t-24 57q0 38 24 58t56 20t56 -20t24 -58q0 -37 -24 -57t-56 -20zM576 119v-119h-504v690h498v-119h-356v-160h322v-116h-322v-176h362z" />
    <glyph glyph-name="Igrave" unicode="&#xcc;" horiz-adv-x="286" 
d="M203 754h-117l-148 120v15h146l119 -120v-15zM72 690h142v-690h-142v690z" />
    <glyph glyph-name="Iacute" unicode="&#xcd;" horiz-adv-x="286" 
d="M348 874l-148 -120h-117v15l119 120h146v-15zM72 690h142v-690h-142v690z" />
    <glyph glyph-name="Icircumflex" unicode="&#xce;" horiz-adv-x="286" 
d="M296 769v-15h-112l-40 52l-41 -52h-112v15l104 120h97zM72 690h142v-690h-142v690z" />
    <glyph glyph-name="Idieresis" unicode="&#xcf;" horiz-adv-x="286" 
d="M-36 821q0 37 22.5 57t53.5 20q30 0 53 -20t23 -57q0 -38 -23 -57.5t-53 -19.5q-31 0 -53.5 19.5t-22.5 57.5zM171 821q0 37 22.5 57t53.5 20q30 0 53 -20t23 -57q0 -38 -23 -57.5t-53 -19.5q-31 0 -53.5 19.5t-22.5 57.5zM72 690h142v-690h-142v690z" />
    <glyph glyph-name="Eth" unicode="&#xd0;" horiz-adv-x="735" 
d="M371 690q74 0 134 -22.5t102.5 -66t66 -107.5t23.5 -146t-24.5 -147t-68 -109.5t-104.5 -68t-135 -23.5h-284v288h-59v116h59v286h290zM364 120q87 0 136 55.5t49 168.5q0 114 -49 170t-136 56h-141v-166h126v-116h-126v-168h141z" />
    <glyph glyph-name="Ntilde" unicode="&#xd1;" horiz-adv-x="760" 
d="M185 754q0 39 9.5 65.5t26 42.5t37.5 23t44 7q27 0 48 -8t38 -18t31 -18t26 -8q18 0 29 11.5t11 36.5h92q0 -40 -9.5 -66.5t-26 -42.5t-37.5 -22.5t-44 -6.5q-24 0 -43.5 8t-37 18t-33 18t-30.5 8q-39 0 -39 -48h-92zM688 690v-690h-173l-253 420q-15 24 -32 55.5
t-33 60.5q2 -32 3.5 -67.5t1.5 -67.5l4 -401h-134v690h174l250 -415q15 -26 33.5 -58.5t35.5 -63.5q-3 35 -5 71.5t-2 62.5l-4 403h134z" />
    <glyph glyph-name="Ograve" unicode="&#xd2;" horiz-adv-x="781" 
d="M451 754h-117l-148 120v15h146l119 -120v-15zM745 348q0 -85 -28 -151.5t-77 -112.5t-113.5 -70t-138.5 -24t-138 23t-111.5 68t-75 111t-27.5 153q0 85 28.5 151t77 111.5t113.5 69t138 23.5q74 0 138 -23.5t111.5 -68.5t75 -110.5t27.5 -149.5zM597 344
q0 59 -16.5 102.5t-44.5 73t-65.5 44t-79.5 14.5t-80 -14.5t-66 -43.5t-44.5 -72.5t-16.5 -101.5t16.5 -102t44.5 -73.5t66 -44t80 -14.5t79.5 14.5t65.5 43.5t44.5 72.5t16.5 101.5z" />
    <glyph glyph-name="Oacute" unicode="&#xd3;" horiz-adv-x="781" 
d="M596 874l-148 -120h-117v15l119 120h146v-15zM745 348q0 -85 -28 -151.5t-77 -112.5t-113.5 -70t-138.5 -24t-138 23t-111.5 68t-75 111t-27.5 153q0 85 28.5 151t77 111.5t113.5 69t138 23.5q74 0 138 -23.5t111.5 -68.5t75 -110.5t27.5 -149.5zM597 344
q0 59 -16.5 102.5t-44.5 73t-65.5 44t-79.5 14.5t-80 -14.5t-66 -43.5t-44.5 -72.5t-16.5 -101.5t16.5 -102t44.5 -73.5t66 -44t80 -14.5t79.5 14.5t65.5 43.5t44.5 72.5t16.5 101.5z" />
    <glyph glyph-name="Ocircumflex" unicode="&#xd4;" horiz-adv-x="781" 
d="M337 754h-120v15l121 120h109l121 -120v-15h-120l-55 52zM393 700q74 0 138 -23.5t111.5 -68.5t75 -110.5t27.5 -149.5q0 -85 -28 -151.5t-77 -112.5t-113.5 -70t-138.5 -24t-138 23t-111.5 68t-75 111t-27.5 153q0 85 28.5 151t77 111.5t113.5 69t138 23.5zM391 112
q42 0 79.5 14.5t65.5 43.5t44.5 72.5t16.5 101.5q0 59 -16.5 102.5t-44.5 73t-65.5 44t-79.5 14.5t-80 -14.5t-66 -43.5t-44.5 -72.5t-16.5 -101.5t16.5 -102t44.5 -73.5t66 -44t80 -14.5z" />
    <glyph glyph-name="Otilde" unicode="&#xd5;" horiz-adv-x="781" 
d="M199 754q0 39 9.5 65.5t26 42.5t37.5 23t44 7q27 0 48 -8t38 -18t31 -18t26 -8q18 0 29 11.5t11 36.5h92q0 -40 -9.5 -66.5t-26 -42.5t-37.5 -22.5t-44 -6.5q-24 0 -43.5 8t-37 18t-33 18t-30.5 8q-39 0 -39 -48h-92zM745 348q0 -85 -28 -151.5t-77 -112.5t-113.5 -70
t-138.5 -24t-138 23t-111.5 68t-75 111t-27.5 153q0 85 28.5 151t77 111.5t113.5 69t138 23.5q74 0 138 -23.5t111.5 -68.5t75 -110.5t27.5 -149.5zM597 344q0 59 -16.5 102.5t-44.5 73t-65.5 44t-79.5 14.5t-80 -14.5t-66 -43.5t-44.5 -72.5t-16.5 -101.5t16.5 -102
t44.5 -73.5t66 -44t80 -14.5t79.5 14.5t65.5 43.5t44.5 72.5t16.5 101.5z" />
    <glyph glyph-name="Odieresis" unicode="&#xd6;" horiz-adv-x="781" 
d="M190 820q0 38 24 58t56 20t56 -20t24 -58q0 -37 -24 -57t-56 -20t-56 20t-24 57zM433 820q0 38 24 58t56 20t56 -20t24 -58q0 -37 -24 -57t-56 -20t-56 20t-24 57zM745 348q0 -85 -28 -151.5t-77 -112.5t-113.5 -70t-138.5 -24t-138 23t-111.5 68t-75 111t-27.5 153
q0 85 28.5 151t77 111.5t113.5 69t138 23.5q74 0 138 -23.5t111.5 -68.5t75 -110.5t27.5 -149.5zM597 344q0 59 -16.5 102.5t-44.5 73t-65.5 44t-79.5 14.5t-80 -14.5t-66 -43.5t-44.5 -72.5t-16.5 -101.5t16.5 -102t44.5 -73.5t66 -44t80 -14.5t79.5 14.5t65.5 43.5
t44.5 72.5t16.5 101.5z" />
    <glyph glyph-name="multiply" unicode="&#xd7;" horiz-adv-x="558" 
d="M361 250l168 -168l-82 -82l-168 168l-168 -168l-82 82l168 168l-168 168l82 82l168 -168l168 168l82 -82z" />
    <glyph glyph-name="Oslash" unicode="&#xd8;" horiz-adv-x="793" 
d="M688 564q30 -42 46.5 -96t16.5 -120q0 -85 -28 -151.5t-77 -112.5t-113.5 -70t-138.5 -24q-62 0 -116.5 16t-99.5 48l-81 -81l-72 72l80 80q-30 43 -46.5 97.5t-16.5 122.5q0 85 28.5 151t77 111.5t113.5 69t138 23.5q126 0 217 -64l81 81l72 -72zM190 346
q0 -34 5.5 -62.5t15.5 -52.5l309 309q-53 38 -123 38q-42 0 -80 -14.5t-66 -43.5t-44.5 -72.5t-16.5 -101.5zM603 344q0 33 -5.5 61.5t-15.5 52.5l-308 -308q53 -38 123 -38q42 0 79.5 14.5t65.5 43.5t44.5 72.5t16.5 101.5z" />
    <glyph glyph-name="Ugrave" unicode="&#xd9;" horiz-adv-x="734" 
d="M427 754h-117l-148 120v15h146l119 -120v-15zM670 295q0 -79 -25 -136.5t-67 -95t-97.5 -55.5t-116.5 -18t-115.5 17t-95.5 53t-65 93.5t-24 138.5v398h142v-383q0 -55 13 -92t35.5 -60t51.5 -33t61 -10t61 10t51.5 32.5t35.5 59.5t13 91v385h142v-395z" />
    <glyph glyph-name="Uacute" unicode="&#xda;" horiz-adv-x="734" 
d="M572 874l-148 -120h-117v15l119 120h146v-15zM670 295q0 -79 -25 -136.5t-67 -95t-97.5 -55.5t-116.5 -18t-115.5 17t-95.5 53t-65 93.5t-24 138.5v398h142v-383q0 -55 13 -92t35.5 -60t51.5 -33t61 -10t61 10t51.5 32.5t35.5 59.5t13 91v385h142v-395z" />
    <glyph glyph-name="Ucircumflex" unicode="&#xdb;" horiz-adv-x="734" 
d="M312 754h-120v15l121 120h109l121 -120v-15h-120l-55 52zM670 690v-395q0 -79 -25 -136.5t-67 -95t-97.5 -55.5t-116.5 -18t-115.5 17t-95.5 53t-65 93.5t-24 138.5v398h142v-383q0 -55 13 -92t35.5 -60t51.5 -33t61 -10t61 10t51.5 32.5t35.5 59.5t13 91v385h142z" />
    <glyph glyph-name="Udieresis" unicode="&#xdc;" horiz-adv-x="734" 
d="M166 820q0 38 24 58t56 20t56 -20t24 -58q0 -37 -24 -57t-56 -20t-56 20t-24 57zM409 820q0 38 24 58t56 20t56 -20t24 -58q0 -37 -24 -57t-56 -20t-56 20t-24 57zM670 295q0 -79 -25 -136.5t-67 -95t-97.5 -55.5t-116.5 -18t-115.5 17t-95.5 53t-65 93.5t-24 138.5v398
h142v-383q0 -55 13 -92t35.5 -60t51.5 -33t61 -10t61 10t51.5 32.5t35.5 59.5t13 91v385h142v-395z" />
    <glyph glyph-name="Yacute" unicode="&#xdd;" horiz-adv-x="666" 
d="M391 754h-117v15l119 120h146v-15zM405 271v-271h-143v268l-267 422h174l116 -190q17 -29 30.5 -56t21.5 -45q8 18 22.5 45t31.5 56l116 190h164z" />
    <glyph glyph-name="Thorn" unicode="&#xde;" horiz-adv-x="699" 
d="M393 562q135 0 205.5 -55.5t70.5 -162.5t-74 -166.5t-208 -59.5h-173v-118h-142v690h142v-128h179zM383 238q64 0 101.5 22.5t37.5 79.5t-36.5 79.5t-102.5 22.5h-169v-204h169z" />
    <glyph glyph-name="germandbls" unicode="&#xdf;" horiz-adv-x="622" 
d="M353 95q44 0 74 24.5t30 79.5q0 54 -32.5 82.5t-89.5 28.5h-50v107h31q25 0 41 8.5t25 21.5t12 28t3 27q0 47 -25 71.5t-73 24.5q-61 0 -84 -33t-23 -95v-470h-130v461q0 118 60.5 178.5t175.5 60.5q56 0 99 -13.5t73 -37t45.5 -55.5t15.5 -70q0 -45 -23.5 -83t-60.5 -59
q29 -7 55 -21.5t45.5 -37.5t31.5 -55.5t12 -76.5t-14 -81t-42 -63.5t-69 -41.5t-94 -15q-36 0 -64.5 3t-55.5 10l2 106q21 -6 46.5 -10t52.5 -4z" />
    <glyph glyph-name="agrave" unicode="&#xe0;" horiz-adv-x="548" 
d="M215 575l-148 140v15h146l119 -140v-15h-117zM490 110q0 -26 3.5 -51.5t10.5 -46.5v-12h-137q-5 15 -8 32.5t-4 34.5q-27 -35 -72.5 -56t-101.5 -21q-35 0 -62.5 10t-47 28t-30 42t-10.5 52q0 57 36.5 97t123.5 53l159 24v25q0 39 -18 60t-61 21q-42 0 -62.5 -20
t-20.5 -57h-135q0 41 14.5 74.5t43 58.5t69.5 38.5t93 13.5q109 0 163 -53t54 -139v-208zM219 85q15 0 33 5t36 16t34 29t28 45v35l-119 -20q-63 -10 -63 -59q0 -24 14 -37.5t37 -13.5z" />
    <glyph glyph-name="aacute" unicode="&#xe1;" horiz-adv-x="548" 
d="M328 575h-117v15l119 140h146v-15zM490 110q0 -26 3.5 -51.5t10.5 -46.5v-12h-137q-5 15 -8 32.5t-4 34.5q-27 -35 -72.5 -56t-101.5 -21q-35 0 -62.5 10t-47 28t-30 42t-10.5 52q0 57 36.5 97t123.5 53l159 24v25q0 39 -18 60t-61 21q-42 0 -62.5 -20t-20.5 -57h-135
q0 41 14.5 74.5t43 58.5t69.5 38.5t93 13.5q109 0 163 -53t54 -139v-208zM219 85q15 0 33 5t36 16t34 29t28 45v35l-119 -20q-63 -10 -63 -59q0 -24 14 -37.5t37 -13.5z" />
    <glyph glyph-name="acircumflex" unicode="&#xe2;" horiz-adv-x="548" 
d="M211 575h-110v15l125 140h101l125 -140v-15h-114l-63 67zM490 110q0 -26 3.5 -51.5t10.5 -46.5v-12h-137q-5 15 -8 32.5t-4 34.5q-27 -35 -72.5 -56t-101.5 -21q-35 0 -62.5 10t-47 28t-30 42t-10.5 52q0 57 36.5 97t123.5 53l159 24v25q0 39 -18 60t-61 21
q-42 0 -62.5 -20t-20.5 -57h-135q0 41 14.5 74.5t43 58.5t69.5 38.5t93 13.5q109 0 163 -53t54 -139v-208zM219 85q15 0 33 5t36 16t34 29t28 45v35l-119 -20q-63 -10 -63 -59q0 -24 14 -37.5t37 -13.5z" />
    <glyph glyph-name="atilde" unicode="&#xe3;" horiz-adv-x="548" 
d="M213 637q-19 0 -28 -12.5t-9 -41.5h-90q0 45 9 75t24.5 48t36 25.5t43.5 7.5q26 0 46.5 -9.5t37 -20.5t29.5 -20.5t24 -9.5q38 0 38 53h90q0 -45 -9 -75t-24.5 -47.5t-36 -25t-43.5 -7.5q-22 0 -41.5 9.5t-36 20.5t-31.5 20.5t-29 9.5zM490 110q0 -26 3.5 -51.5
t10.5 -46.5v-12h-137q-5 15 -8 32.5t-4 34.5q-27 -35 -72.5 -56t-101.5 -21q-35 0 -62.5 10t-47 28t-30 42t-10.5 52q0 57 36.5 97t123.5 53l159 24v25q0 39 -18 60t-61 21q-42 0 -62.5 -20t-20.5 -57h-135q0 41 14.5 74.5t43 58.5t69.5 38.5t93 13.5q109 0 163 -53t54 -139
v-208zM219 85q15 0 33 5t36 16t34 29t28 45v35l-119 -20q-63 -10 -63 -59q0 -24 14 -37.5t37 -13.5z" />
    <glyph glyph-name="adieresis" unicode="&#xe4;" horiz-adv-x="548" 
d="M156 580q-32 0 -56 20t-24 57q0 38 24 58t56 20t56 -20t24 -58q0 -37 -24 -57t-56 -20zM399 580q-32 0 -56 20t-24 57q0 38 24 58t56 20t56 -20t24 -58q0 -37 -24 -57t-56 -20zM490 110q0 -26 3.5 -51.5t10.5 -46.5v-12h-137q-5 15 -8 32.5t-4 34.5q-27 -35 -72.5 -56
t-101.5 -21q-35 0 -62.5 10t-47 28t-30 42t-10.5 52q0 57 36.5 97t123.5 53l159 24v25q0 39 -18 60t-61 21q-42 0 -62.5 -20t-20.5 -57h-135q0 41 14.5 74.5t43 58.5t69.5 38.5t93 13.5q109 0 163 -53t54 -139v-208zM219 85q15 0 33 5t36 16t34 29t28 45v35l-119 -20
q-63 -10 -63 -59q0 -24 14 -37.5t37 -13.5z" />
    <glyph glyph-name="aring" unicode="&#xe5;" horiz-adv-x="548" 
d="M277 548q-66 0 -101 35.5t-35 90.5t35 90t101 35t100.5 -35t34.5 -90t-34.5 -90.5t-100.5 -35.5zM277 720q-21 0 -32.5 -13t-11.5 -33t11.5 -33.5t32.5 -13.5q20 0 31.5 13.5t11.5 33.5t-11.5 33t-31.5 13zM490 110q0 -26 3.5 -51.5t10.5 -46.5v-12h-137q-5 15 -8 32.5
t-4 34.5q-27 -35 -72.5 -56t-101.5 -21q-35 0 -62.5 10t-47 28t-30 42t-10.5 52q0 57 36.5 97t123.5 53l159 24v25q0 39 -18 60t-61 21q-42 0 -62.5 -20t-20.5 -57h-135q0 41 14.5 74.5t43 58.5t69.5 38.5t93 13.5q109 0 163 -53t54 -139v-208zM219 85q15 0 33 5t36 16
t34 29t28 45v35l-119 -20q-63 -10 -63 -59q0 -24 14 -37.5t37 -13.5z" />
    <glyph glyph-name="ae" unicode="&#xe6;" horiz-adv-x="885" 
d="M850 208h-361q0 -52 31 -82.5t79 -30.5q47 0 76.5 18.5t31.5 49.5h139q-2 -37 -20.5 -68.5t-51 -54.5t-77.5 -36.5t-100 -13.5q-67 0 -118 22.5t-83 67.5q-30 -38 -82.5 -64t-124.5 -26q-77 0 -118 36t-41 93t37 98t125 55l157 24v24q0 39 -18.5 60.5t-60.5 21.5
t-61.5 -20t-19.5 -57h-135q0 41 14.5 74.5t42 58.5t68 38.5t92.5 13.5q54 0 95 -16t68 -44q71 60 174 60q55 0 100 -16.5t76.5 -49t48.5 -79.5t17 -109v-48zM603 402q-44 0 -73 -25.5t-36 -79.5h209q-5 57 -31.5 81t-68.5 24zM218 85q38 0 74.5 18t56.5 56v52l-119 -20
q-63 -10 -63 -57q0 -24 14 -36.5t37 -12.5z" />
    <glyph glyph-name="ccedilla" unicode="&#xe7;" horiz-adv-x="563" 
d="M288 99q47 0 76 24t33 69h137q-2 -78 -51.5 -130t-130.5 -67l-12 -35q38 -3 66 -24t28 -62q0 -45 -30.5 -71.5t-99.5 -26.5q-37 0 -61.5 8t-39 20.5t-20.5 28.5t-6 31h87q0 -11 12 -18t29 -7t29.5 6.5t12.5 23.5q0 30 -35 30q-11 0 -19 -3l-59 32l24 64q-50 5 -91.5 24.5
t-71.5 52.5t-46.5 78.5t-16.5 102.5q0 62 20.5 110.5t56 81.5t83 50.5t100.5 17.5q52 0 95.5 -14.5t75.5 -41.5t51 -64t20 -82h-139q-5 45 -32 69t-72 24q-23 0 -44 -8t-36.5 -25.5t-25 -45.5t-9.5 -69q0 -79 31.5 -116.5t80.5 -37.5z" />
    <glyph glyph-name="egrave" unicode="&#xe8;" horiz-adv-x="571" 
d="M244 575l-148 140v15h146l119 -140v-15h-117zM537 208h-360q0 -52 33.5 -82.5t81.5 -30.5q45 0 71 18.5t28 49.5h138q-2 -37 -18.5 -68.5t-47 -54.5t-73.5 -36.5t-99 -13.5q-57 0 -104.5 16.5t-82 49.5t-53.5 81.5t-19 112.5q0 63 21 111.5t57 81.5t83.5 50t99.5 17
q55 0 100 -16.5t77 -49.5t49.5 -82t17.5 -113v-41zM291 402q-44 0 -73 -25t-36 -76h209q-5 54 -31.5 77.5t-68.5 23.5z" />
    <glyph glyph-name="eacute" unicode="&#xe9;" horiz-adv-x="571" 
d="M337 575h-117v15l119 140h146v-15zM537 208h-360q0 -52 33.5 -82.5t81.5 -30.5q45 0 71 18.5t28 49.5h138q-2 -37 -18.5 -68.5t-47 -54.5t-73.5 -36.5t-99 -13.5q-57 0 -104.5 16.5t-82 49.5t-53.5 81.5t-19 112.5q0 63 21 111.5t57 81.5t83.5 50t99.5 17q55 0 100 -16.5
t77 -49.5t49.5 -82t17.5 -113v-41zM291 402q-44 0 -73 -25t-36 -76h209q-5 54 -31.5 77.5t-68.5 23.5z" />
    <glyph glyph-name="ecircumflex" unicode="&#xea;" horiz-adv-x="571" 
d="M229 575h-110v15l125 140h101l125 -140v-15h-114l-63 67zM537 208h-360q0 -52 33.5 -82.5t81.5 -30.5q45 0 71 18.5t28 49.5h138q-2 -37 -18.5 -68.5t-47 -54.5t-73.5 -36.5t-99 -13.5q-57 0 -104.5 16.5t-82 49.5t-53.5 81.5t-19 112.5q0 63 21 111.5t57 81.5t83.5 50
t99.5 17q55 0 100 -16.5t77 -49.5t49.5 -82t17.5 -113v-41zM291 402q-44 0 -73 -25t-36 -76h209q-5 54 -31.5 77.5t-68.5 23.5z" />
    <glyph glyph-name="edieresis" unicode="&#xeb;" horiz-adv-x="571" 
d="M165 580q-32 0 -56 20t-24 57q0 38 24 58t56 20t56 -20t24 -58q0 -37 -24 -57t-56 -20zM408 580q-32 0 -56 20t-24 57q0 38 24 58t56 20t56 -20t24 -58q0 -37 -24 -57t-56 -20zM537 208h-360q0 -52 33.5 -82.5t81.5 -30.5q45 0 71 18.5t28 49.5h138q-2 -37 -18.5 -68.5
t-47 -54.5t-73.5 -36.5t-99 -13.5q-57 0 -104.5 16.5t-82 49.5t-53.5 81.5t-19 112.5q0 63 21 111.5t57 81.5t83.5 50t99.5 17q55 0 100 -16.5t77 -49.5t49.5 -82t17.5 -113v-41zM291 402q-44 0 -73 -25t-36 -76h209q-5 54 -31.5 77.5t-68.5 23.5z" />
    <glyph glyph-name="igrave" unicode="&#xec;" horiz-adv-x="264" 
d="M67 730l119 -140v-15h-117l-148 140v15h146zM62 500h140v-500h-140v500z" />
    <glyph glyph-name="iacute" unicode="&#xed;" horiz-adv-x="264" 
d="M330 715l-148 -140h-117v15l119 140h146v-15zM62 500h140v-500h-140v500z" />
    <glyph glyph-name="icircumflex" unicode="&#xee;" horiz-adv-x="264" 
d="M284 590v-15h-107l-46 70l-47 -70h-107v15l93 140h121zM62 500h140v-500h-140v500z" />
    <glyph glyph-name="idieresis" unicode="&#xef;" horiz-adv-x="264" 
d="M-50 651q0 35 23 54t54 19q30 0 53 -19t23 -54t-23 -54.5t-53 -19.5q-31 0 -54 19.5t-23 54.5zM159 651q0 35 23 54t54 19q30 0 53 -19t23 -54t-23 -54.5t-53 -19.5q-31 0 -54 19.5t-23 54.5zM62 500h140v-500h-140v500z" />
    <glyph glyph-name="eth" unicode="&#xf0;" horiz-adv-x="604" 
d="M335 705q57 -30 100 -74.5t72.5 -99t44 -117t14.5 -129.5q0 -78 -22 -133.5t-59 -91.5t-85.5 -53t-102.5 -17t-102 17t-84.5 50t-57.5 81.5t-21 111.5q0 62 22 110.5t58 81.5t81 50.5t90 17.5q35 0 66.5 -9.5t51.5 -34.5q-37 81 -109 123l-20 -52l-109 40l19 52
q-20 3 -42.5 5t-46.5 2v125q72 0 133 -15l23 62l109 -41zM299 110q25 0 47 8.5t39 26t27 43.5t10 61q0 76 -32 108.5t-91 32.5q-25 0 -47 -8.5t-39 -26t-27 -43.5t-10 -61t10 -61.5t27 -44t39 -26.5t47 -9z" />
    <glyph glyph-name="ntilde" unicode="&#xf1;" horiz-adv-x="600" 
d="M233 637q-19 0 -28 -12.5t-9 -41.5h-90q0 45 9 75t24.5 48t36 25.5t43.5 7.5q26 0 46.5 -9.5t37 -20.5t29.5 -20.5t24 -9.5q38 0 38 53h90q0 -45 -9 -75t-24.5 -47.5t-36 -25t-43.5 -7.5q-22 0 -41.5 9.5t-36 20.5t-31.5 20.5t-29 9.5zM359 510q94 0 139 -54t45 -142
v-314h-140v295q0 51 -23.5 73.5t-64.5 22.5q-42 0 -72 -25t-41 -69v-297h-140v500h136v-66q25 37 65.5 56.5t95.5 19.5z" />
    <glyph glyph-name="ograve" unicode="&#xf2;" horiz-adv-x="598" 
d="M245 730l119 -140v-15h-117l-148 140v15h146zM566 252q0 -62 -22 -110.5t-59 -82.5t-85.5 -51.5t-102.5 -17.5t-102 17t-84.5 50t-57.5 81.5t-21 111.5q0 62 22 110.5t59 81.5t85.5 50.5t102.5 17.5t102 -17t84.5 -50t57.5 -81t21 -110zM422 249q0 35 -10 61.5t-27 44
t-39 26.5t-47 9t-47 -8.5t-39 -26t-27 -43.5t-10 -61t10 -61.5t27 -44t39 -26.5t47 -9t47 8.5t39 26t27 43.5t10 61z" />
    <glyph glyph-name="oacute" unicode="&#xf3;" horiz-adv-x="598" 
d="M498 715l-148 -140h-117v15l119 140h146v-15zM566 252q0 -62 -22 -110.5t-59 -82.5t-85.5 -51.5t-102.5 -17.5t-102 17t-84.5 50t-57.5 81.5t-21 111.5q0 62 22 110.5t59 81.5t85.5 50.5t102.5 17.5t102 -17t84.5 -50t57.5 -81t21 -110zM422 249q0 35 -10 61.5t-27 44
t-39 26.5t-47 9t-47 -8.5t-39 -26t-27 -43.5t-10 -61t10 -61.5t27 -44t39 -26.5t47 -9t47 8.5t39 26t27 43.5t10 61z" />
    <glyph glyph-name="ocircumflex" unicode="&#xf4;" horiz-adv-x="598" 
d="M238 575h-110v15l125 140h101l125 -140v-15h-114l-63 67zM301 510q54 0 102 -17t84.5 -50t57.5 -81t21 -110t-22 -110.5t-59 -82.5t-85.5 -51.5t-102.5 -17.5t-102 17t-84.5 50t-57.5 81.5t-21 111.5q0 62 22 110.5t59 81.5t85.5 50.5t102.5 17.5zM299 110q25 0 47 8.5
t39 26t27 43.5t10 61t-10 61.5t-27 44t-39 26.5t-47 9t-47 -8.5t-39 -26t-27 -43.5t-10 -61t10 -61.5t27 -44t39 -26.5t47 -9z" />
    <glyph glyph-name="otilde" unicode="&#xf5;" horiz-adv-x="598" 
d="M108 583q0 45 9 75t24.5 48t36 25.5t43.5 7.5q26 0 46.5 -9.5t37 -20.5t29.5 -20.5t24 -9.5q38 0 38 53h90q0 -45 -9 -75t-24.5 -47.5t-36 -25t-43.5 -7.5q-22 0 -41.5 9.5t-36 20.5t-31.5 20.5t-29 9.5q-19 0 -28 -12.5t-9 -41.5h-90zM566 252q0 -62 -22 -110.5
t-59 -82.5t-85.5 -51.5t-102.5 -17.5t-102 17t-84.5 50t-57.5 81.5t-21 111.5q0 62 22 110.5t59 81.5t85.5 50.5t102.5 17.5t102 -17t84.5 -50t57.5 -81t21 -110zM422 249q0 35 -10 61.5t-27 44t-39 26.5t-47 9t-47 -8.5t-39 -26t-27 -43.5t-10 -61t10 -61.5t27 -44
t39 -26.5t47 -9t47 8.5t39 26t27 43.5t10 61z" />
    <glyph glyph-name="odieresis" unicode="&#xf6;" horiz-adv-x="598" 
d="M98 657q0 38 24 58t56 20t56 -20t24 -58q0 -37 -24 -57t-56 -20t-56 20t-24 57zM341 657q0 38 24 58t56 20t56 -20t24 -58q0 -37 -24 -57t-56 -20t-56 20t-24 57zM566 252q0 -62 -22 -110.5t-59 -82.5t-85.5 -51.5t-102.5 -17.5t-102 17t-84.5 50t-57.5 81.5t-21 111.5
q0 62 22 110.5t59 81.5t85.5 50.5t102.5 17.5t102 -17t84.5 -50t57.5 -81t21 -110zM422 249q0 35 -10 61.5t-27 44t-39 26.5t-47 9t-47 -8.5t-39 -26t-27 -43.5t-10 -61t10 -61.5t27 -44t39 -26.5t47 -9t47 8.5t39 26t27 43.5t10 61z" />
    <glyph glyph-name="divide" unicode="&#xf7;" horiz-adv-x="582" 
d="M207 439q0 39 25 60t59 21t59 -21t25 -60t-25 -60t-59 -21t-59 21t-25 60zM554 306v-112h-526v112h526zM207 61q0 39 25 60t59 21t59 -21t25 -60t-25 -60t-59 -21t-59 21t-25 60z" />
    <glyph glyph-name="oslash" unicode="&#xf8;" horiz-adv-x="622" 
d="M538 398q19 -29 29.5 -65.5t10.5 -80.5q0 -62 -22 -110.5t-59 -82.5t-85.5 -51.5t-102.5 -17.5q-39 0 -75.5 9t-67.5 27l-73 -73l-79 79l70 70q-19 30 -29.5 66.5t-10.5 81.5q0 62 22 110.5t59 81.5t85.5 50.5t102.5 17.5q39 0 75.5 -9t67.5 -27l75 75l79 -79zM188 251
q0 -24 4 -41l170 170q-23 10 -51 10q-25 0 -47 -8.5t-39 -26t-27 -43.5t-10 -61zM434 249q0 24 -4 41l-170 -170q23 -10 51 -10q25 0 47 8.5t39 26t27 43.5t10 61z" />
    <glyph glyph-name="ugrave" unicode="&#xf9;" horiz-adv-x="595" 
d="M234 575l-148 140v15h146l119 -140v-15h-117zM533 114q0 -23 3 -51.5t11 -50.5v-12h-137q-6 17 -8.5 35t-4.5 36q-26 -38 -68 -59.5t-98 -21.5q-85 0 -129.5 48.5t-44.5 135.5v326h140v-303q0 -46 21.5 -66.5t60.5 -20.5q38 0 70 23.5t44 65.5v301h140v-386z" />
    <glyph glyph-name="uacute" unicode="&#xfa;" horiz-adv-x="595" 
d="M347 575h-117v15l119 140h146v-15zM533 114q0 -23 3 -51.5t11 -50.5v-12h-137q-6 17 -8.5 35t-4.5 36q-26 -38 -68 -59.5t-98 -21.5q-85 0 -129.5 48.5t-44.5 135.5v326h140v-303q0 -46 21.5 -66.5t60.5 -20.5q38 0 70 23.5t44 65.5v301h140v-386z" />
    <glyph glyph-name="ucircumflex" unicode="&#xfb;" horiz-adv-x="595" 
d="M230 575h-110v15l125 140h101l125 -140v-15h-114l-63 67zM533 114q0 -23 3 -51.5t11 -50.5v-12h-137q-6 17 -8.5 35t-4.5 36q-26 -38 -68 -59.5t-98 -21.5q-85 0 -129.5 48.5t-44.5 135.5v326h140v-303q0 -46 21.5 -66.5t60.5 -20.5q38 0 70 23.5t44 65.5v301h140v-386z
" />
    <glyph glyph-name="udieresis" unicode="&#xfc;" horiz-adv-x="595" 
d="M175 580q-32 0 -56 20t-24 57q0 38 24 58t56 20t56 -20t24 -58q0 -37 -24 -57t-56 -20zM418 580q-32 0 -56 20t-24 57q0 38 24 58t56 20t56 -20t24 -58q0 -37 -24 -57t-56 -20zM533 114q0 -23 3 -51.5t11 -50.5v-12h-137q-6 17 -8.5 35t-4.5 36q-26 -38 -68 -59.5
t-98 -21.5q-85 0 -129.5 48.5t-44.5 135.5v326h140v-303q0 -46 21.5 -66.5t60.5 -20.5q38 0 70 23.5t44 65.5v301h140v-386z" />
    <glyph glyph-name="yacute" unicode="&#xfd;" horiz-adv-x="547" 
d="M325 575h-117v15l119 140h146v-15zM547 500l-198 -500l-52 -115q-25 -56 -67.5 -82.5t-112.5 -26.5q-15 0 -35 1.5t-36 3.5v104q14 -3 29 -4t26 -1q26 0 48.5 10.5t36.5 39.5l23 48l-209 522h152l81 -235q5 -13 11 -32t12 -39.5t11.5 -41t10.5 -38.5q5 18 11 39t12 41
t12 39t10 32l78 235h146z" />
    <glyph glyph-name="thorn" unicode="&#xfe;" horiz-adv-x="615" 
d="M356 510q43 0 83.5 -15t72 -46.5t50.5 -81t19 -118.5t-19 -118t-50.5 -80.5t-72 -46t-83.5 -14.5q-102 0 -154 66v-270h-140v964h140v-312q26 35 65 53.5t89 18.5zM321 110q20 0 40 7t37 23.5t27.5 43.5t10.5 66t-10.5 66t-27.5 43.5t-37 23.5t-40 7q-40 0 -74 -24.5
t-45 -68.5v-106q12 -35 45.5 -58t73.5 -23z" />
    <glyph glyph-name="ydieresis" unicode="&#xff;" horiz-adv-x="547" 
d="M153 580q-32 0 -56 20t-24 57q0 38 24 58t56 20t56 -20t24 -58q0 -37 -24 -57t-56 -20zM396 580q-32 0 -56 20t-24 57q0 38 24 58t56 20t56 -20t24 -58q0 -37 -24 -57t-56 -20zM547 500l-198 -500l-52 -115q-25 -56 -67.5 -82.5t-112.5 -26.5q-15 0 -35 1.5t-36 3.5v104
q14 -3 29 -4t26 -1q26 0 48.5 10.5t36.5 39.5l23 48l-209 522h152l81 -235q5 -13 11 -32t12 -39.5t11.5 -41t10.5 -38.5q5 18 11 39t12 41t12 39t10 32l78 235h146z" />
    <glyph glyph-name="dotlessi" unicode="&#x131;" horiz-adv-x="264" 
d="M62 500h140v-500h-140v500z" />
    <glyph glyph-name="Lslash" unicode="&#x141;" horiz-adv-x="630" 
d="M618 120v-120h-492v263l-50 -24l-47 100l97 46v305h142v-237l83 40l47 -100l-130 -62v-211h350z" />
    <glyph glyph-name="lslash" unicode="&#x142;" horiz-adv-x="352" 
d="M247 348v-348h-140v281l-43 -20l-47 100l90 43v346h140v-279l45 21l47 -100z" />
    <glyph glyph-name="OE" unicode="&#x152;" horiz-adv-x="1127" 
d="M1086 119v-119h-504v65q-38 -36 -88 -55.5t-113 -19.5q-72 0 -135 23t-109.5 68t-73 111t-26.5 153q0 85 27.5 151t75 111.5t111 69t135.5 23.5q62 0 110.5 -18t85.5 -52v60h498v-119h-356v-160h322v-116h-322v-176h362zM384 112q41 0 77 13t63 41t42.5 72t15.5 106
t-15.5 106.5t-42.5 73t-63 41.5t-77 13t-77 -14.5t-63 -43.5t-43 -72.5t-16 -101.5t16 -102t43 -73.5t63 -44t77 -14.5z" />
    <glyph glyph-name="oe" unicode="&#x153;" horiz-adv-x="963" 
d="M928 208h-361q0 -52 33 -82.5t81 -30.5q47 0 74.5 18.5t29.5 49.5h139q-2 -37 -18.5 -68.5t-46.5 -54.5t-73 -36.5t-98 -13.5q-66 0 -116.5 22t-82.5 66q-35 -43 -85 -65.5t-107 -22.5q-54 0 -102 17t-84.5 50t-57.5 81.5t-21 111.5q0 62 22 110.5t59 81.5t85.5 50.5
t102.5 17.5q59 0 108.5 -23.5t83.5 -66.5q33 43 82.5 66.5t110.5 23.5q55 0 100 -16.5t76.5 -49t48.5 -79.5t17 -109v-48zM681 402q-44 0 -73 -25t-36 -76h209q-5 54 -31.5 77.5t-68.5 23.5zM299 110q25 0 47 8.5t39 26t27 43.5t10 61t-10 61.5t-27 44t-39 26.5t-47 9
t-47 -8.5t-39 -26t-27 -43.5t-10 -61t10 -61.5t27 -44t39 -26.5t47 -9z" />
    <glyph glyph-name="Scaron" unicode="&#x160;" horiz-adv-x="672" 
d="M158 874v15h120l56 -52l55 52h120v-15l-121 -120h-109zM419 405q51 -7 91 -21.5t68.5 -38.5t43.5 -59t15 -84q0 -46 -18 -85t-55 -67.5t-93.5 -44t-133.5 -15.5q-157 0 -233 60.5t-76 165.5h144q0 -50 41 -80.5t120 -29.5q82 1 119.5 24.5t37.5 61.5q0 23 -8.5 37.5
t-23 23.5t-34 14t-41.5 8l-111 16q-115 16 -169 69.5t-54 134.5q0 43 16.5 80.5t50.5 65t87 43.5t125 16q146 0 218.5 -61t72.5 -163h-141q0 52 -39.5 80.5t-108.5 27.5q-74 -1 -104.5 -25t-30.5 -58q0 -37 30 -54t81 -25z" />
    <glyph glyph-name="scaron" unicode="&#x161;" horiz-adv-x="525" 
d="M81 715v15h110l64 -67l63 67h114v-15l-125 -140h-101zM331 300q85 -13 123.5 -49.5t38.5 -98.5q0 -33 -14 -62.5t-42 -51.5t-71 -35t-102 -13q-63 0 -107.5 13t-73 36.5t-42 56t-13.5 71.5h138q0 -32 23 -54.5t74 -21.5q92 1 92 50q0 41 -61 48l-93 12q-79 11 -118 50
t-39 103q0 31 12.5 59t39 49.5t67.5 34.5t97 13q57 0 99 -13.5t69 -37t40 -55.5t13 -70h-135q0 35 -22.5 55.5t-65.5 19.5q-44 -1 -62.5 -15.5t-18.5 -36.5q0 -18 13.5 -28t46.5 -15z" />
    <glyph glyph-name="Ydieresis" unicode="&#x178;" horiz-adv-x="666" 
d="M213 743q-32 0 -56 20t-24 57q0 38 24 58t56 20t56 -20t24 -58q0 -37 -24 -57t-56 -20zM456 743q-32 0 -56 20t-24 57q0 38 24 58t56 20t56 -20t24 -58q0 -37 -24 -57t-56 -20zM405 271v-271h-143v268l-267 422h174l116 -190q17 -29 30.5 -56t21.5 -45q8 18 22.5 45
t31.5 56l116 190h164z" />
    <glyph glyph-name="Zcaron" unicode="&#x17d;" horiz-adv-x="647" 
d="M149 874v15h120l56 -52l55 52h120v-15l-121 -120h-109zM615 119v-119h-583v107l311 374q17 21 40 46.5t41 45.5q-25 -1 -58 -1.5t-64 -0.5h-260v119h568v-107l-319 -384q-16 -20 -36 -42.5t-37 -41.5q28 2 60.5 3t57.5 1h279z" />
    <glyph glyph-name="zcaron" unicode="&#x17e;" horiz-adv-x="510" 
d="M76 715v15h110l64 -67l63 67h114v-15l-125 -140h-101zM477 111v-111h-444v103l179 205q18 20 40 43.5t39 40.5q-26 -1 -59 -2t-60 -1h-129v111h427v-103l-184 -206q-18 -20 -40.5 -43t-39.5 -40q23 1 55 2t59 1h157z" />
    <glyph glyph-name="uni0237" unicode="&#x237;" horiz-adv-x="272" 
d="M210 -57q0 -89 -46.5 -128t-125.5 -39q-21 0 -42.5 2.5t-41.5 7.5v116q12 -3 29 -4.5t31 -1.5q26 0 41 14.5t15 47.5v542h140v-557z" />
    <glyph glyph-name="circumflex" unicode="&#x2c6;" horiz-adv-x="600" 
d="M413 590v-15h-114l-63 67l-64 -67h-110v15l125 140h101z" />
    <glyph glyph-name="caron" unicode="&#x2c7;" horiz-adv-x="600" 
d="M413 730v-15l-125 -140h-101l-125 140v15h110l64 -67l63 67h114z" />
    <glyph glyph-name="breve" unicode="&#x2d8;" horiz-adv-x="600" 
d="M204 659q23 0 37.5 17t16.5 54h103q0 -79 -41 -120t-116 -41t-116 41t-41 120h103q2 -37 16.5 -54t37.5 -17z" />
    <glyph glyph-name="dotaccent" unicode="&#x2d9;" horiz-adv-x="600" 
d="M50 658q0 39 25 60t59 21t59 -21t25 -60t-25 -60t-59 -21t-59 21t-25 60z" />
    <glyph glyph-name="ring" unicode="&#x2da;" horiz-adv-x="600" 
d="M155 548q-66 0 -101 35.5t-35 90.5t35 90t101 35t100.5 -35t34.5 -90t-34.5 -90.5t-100.5 -35.5zM155 627q20 0 31.5 13.5t11.5 33.5t-11.5 33t-31.5 13q-21 0 -32.5 -13t-11.5 -33t11.5 -33.5t32.5 -13.5z" />
    <glyph glyph-name="ogonek" unicode="&#x2db;" horiz-adv-x="600" 
d="M217 0q-35 -18 -57.5 -48t-22.5 -58q0 -29 23 -43.5t62 -0.5v-74q-52 -12 -87.5 -8t-57 19.5t-31 39.5t-9.5 53q0 44 31 86t97 78z" />
    <glyph glyph-name="tilde" unicode="&#x2dc;" horiz-adv-x="600" 
d="M99 583q0 45 9 75t24.5 48t36 25.5t43.5 7.5q26 0 46.5 -9.5t37 -20.5t29.5 -20.5t24 -9.5q38 0 38 53h90q0 -45 -9 -75t-24.5 -47.5t-36 -25t-43.5 -7.5q-22 0 -41.5 9.5t-36 20.5t-31.5 20.5t-29 9.5q-19 0 -28 -12.5t-9 -41.5h-90z" />
    <glyph glyph-name="hungarumlaut" unicode="&#x2dd;" horiz-adv-x="600" 
d="M267 727l-135 -152h-82v15l109 152h108v-15zM441 727l-135 -152h-83v15l109 152h109v-15z" />
    <glyph glyph-name="gravecomb" unicode="&#x300;" 
d="M-169 730l119 -140v-15h-117l-148 140v15h146z" />
    <glyph glyph-name="acutecomb" unicode="&#x301;" 
d="M-50 715l-148 -140h-117v15l119 140h146v-15z" />
    <glyph glyph-name="uni0302" unicode="&#x302;" 
d="M-62 590v-15h-114l-63 67l-64 -67h-110v15l125 140h101z" />
    <glyph glyph-name="tildecomb" unicode="&#x303;" 
d="M-477 583q0 45 9 75t24.5 48t36 25.5t43.5 7.5q25 0 46 -9.5t37.5 -20.5t29.5 -20.5t24 -9.5q38 0 38 53h90q0 -45 -9 -75t-24.5 -47.5t-36 -25t-43.5 -7.5t-42 9.5t-35.5 20.5t-31.5 20.5t-29 9.5q-19 0 -28 -12.5t-9 -41.5h-90z" />
    <glyph glyph-name="uni0304" unicode="&#x304;" 
d="M-50 693v-100h-340v100h340z" />
    <glyph glyph-name="uni0306" unicode="&#x306;" 
d="M-204 659q23 0 37.5 17t16.5 54h103q0 -79 -41 -120t-116 -41t-116 41t-41 120h103q2 -37 16.5 -54t37.5 -17z" />
    <glyph glyph-name="uni0307" unicode="&#x307;" 
d="M-218 658q0 39 25 60t59 21t59 -21t25 -60t-25 -60t-59 -21t-59 21t-25 60z" />
    <glyph glyph-name="uni0308" unicode="&#x308;" 
d="M-420 657q0 38 24 58t56 20t56 -20t24 -58q0 -37 -24 -57t-56 -20t-56 20t-24 57zM-177 657q0 38 24 58t56 20t56 -20t24 -58q0 -37 -24 -57t-56 -20t-56 20t-24 57z" />
    <glyph glyph-name="uni030A" unicode="&#x30a;" 
d="M-154 548q-66 0 -101 35.5t-35 90.5t35 90t101 35t100.5 -35t34.5 -90t-34.5 -90.5t-100.5 -35.5zM-154 627q20 0 31.5 13.5t11.5 33.5t-11.5 33t-31.5 13q-21 0 -32.5 -13t-11.5 -33t11.5 -33.5t32.5 -13.5z" />
    <glyph glyph-name="uni030B" unicode="&#x30b;" 
d="M-224 727l-135 -152h-82v15l109 152h108v-15zM-50 727l-135 -152h-83v15l109 152h109v-15z" />
    <glyph glyph-name="uni030C" unicode="&#x30c;" 
d="M-62 730v-15l-125 -140h-101l-125 140v15h110l64 -67l63 67h114z" />
    <glyph glyph-name="uni0327" unicode="&#x327;" 
d="M-134 -40q38 -3 66 -24t28 -62q0 -45 -30.5 -71.5t-99.5 -26.5q-37 0 -61.5 8t-39 20.5t-20.5 28.5t-6 31h87q0 -11 12 -18t29 -7t29.5 6.5t12.5 23.5q0 30 -35 30q-12 0 -19 -3l-59 32l31 84h93z" />
    <glyph glyph-name="uni0328" unicode="&#x328;" 
d="M-160 0q-35 -18 -57.5 -48t-22.5 -58q0 -29 23 -43.5t62 -0.5v-74q-52 -12 -87.5 -8t-57 19.5t-31 39.5t-9.5 53q0 44 31 86t97 78z" />
    <glyph glyph-name="uni0335" unicode="&#x335;" 
d="M-44 338v-116h-344v116h344z" />
    <glyph glyph-name="uni0337" unicode="&#x337;" 
d="M-143 482l47 -100l-275 -131l-47 100z" />
    <glyph glyph-name="uni0338" unicode="&#x338;" 
d="M71 674l79 -79l-517 -517l-79 79z" />
    <glyph glyph-name="endash" unicode="&#x2013;" horiz-adv-x="594" 
d="M541 338v-116h-488v116h488z" />
    <glyph glyph-name="emdash" unicode="&#x2014;" horiz-adv-x="930" 
d="M877 338v-116h-824v116h824z" />
    <glyph glyph-name="quoteleft" unicode="&#x2018;" horiz-adv-x="235" 
d="M27 529q0 15 5.5 33t11.5 31l72 157h79v-15l-34 -141q14 -8 24 -25t10 -40q0 -39 -25 -60t-59 -21t-59 21t-25 60z" />
    <glyph glyph-name="quoteright" unicode="&#x2019;" horiz-adv-x="236" 
d="M213 679q0 -15 -5.5 -33t-11.5 -31l-72 -157h-79v15l34 141q-14 8 -24 25t-10 40q0 39 25 60t59 21t59 -21t25 -60z" />
    <glyph glyph-name="quotesinglbase" unicode="&#x201a;" horiz-adv-x="244" 
d="M206 71q0 -15 -5.5 -33t-11.5 -31l-72 -157h-79v15l34 141q-14 8 -24 25t-10 40q0 39 25 60t59 21t59 -21t25 -60z" />
    <glyph glyph-name="quotedblleft" unicode="&#x201c;" horiz-adv-x="465" 
d="M27 529q0 15 5.5 33t11.5 31l72 157h79v-15l-34 -141q14 -8 24 -25t10 -40q0 -39 -25 -60t-59 -21t-59 21t-25 60zM257 529q0 15 5.5 33t11.5 31l72 157h79v-15l-34 -141q14 -8 24 -25t10 -40q0 -39 -25 -60t-59 -21t-59 21t-25 60z" />
    <glyph glyph-name="quotedblright" unicode="&#x201d;" horiz-adv-x="466" 
d="M213 679q0 -15 -5.5 -33t-11.5 -31l-72 -157h-79v15l34 141q-14 8 -24 25t-10 40q0 39 25 60t59 21t59 -21t25 -60zM443 679q0 -15 -5.5 -33t-11.5 -31l-72 -157h-79v15l34 141q-14 8 -24 25t-10 40q0 39 25 60t59 21t59 -21t25 -60z" />
    <glyph glyph-name="quotedblbase" unicode="&#x201e;" horiz-adv-x="481" 
d="M206 71q0 -15 -5.5 -33t-11.5 -31l-72 -157h-79v15l34 141q-14 8 -24 25t-10 40q0 39 25 60t59 21t59 -21t25 -60zM443 71q0 -15 -5.5 -33t-11.5 -31l-72 -157h-79v15l34 141q-14 8 -24 25t-10 40q0 39 25 60t59 21t59 -21t25 -60z" />
    <glyph glyph-name="dagger" unicode="&#x2020;" horiz-adv-x="460" 
d="M434 382h-140v-382h-128v382h-140v118h140v190h128v-190h140v-118z" />
    <glyph glyph-name="daggerdbl" unicode="&#x2021;" horiz-adv-x="476" 
d="M302 382v-142h140v-118h-140v-202h-128v202h-140v118h140v142h-140v118h140v190h128v-190h140v-118h-140z" />
    <glyph glyph-name="bullet" unicode="&#x2022;" horiz-adv-x="364" 
d="M62 313q0 28 10 49.5t26.5 36.5t38 22.5t45.5 7.5t46 -7.5t38.5 -22.5t26 -36.5t9.5 -49.5t-9.5 -49.5t-26 -36.5t-38.5 -22.5t-46 -7.5t-45.5 7.5t-38 22.5t-26.5 36.5t-10 49.5z" />
    <glyph glyph-name="ellipsis" unicode="&#x2026;" horiz-adv-x="762" 
d="M36 71q0 39 25 60t59 21t59 -21t25 -60t-25 -60t-59 -21t-59 21t-25 60zM297 71q0 39 25 60t59 21t59 -21t25 -60t-25 -60t-59 -21t-59 21t-25 60zM558 71q0 39 25 60t59 21t59 -21t25 -60t-25 -60t-59 -21t-59 21t-25 60z" />
    <glyph glyph-name="perthousand" unicode="&#x2030;" horiz-adv-x="1406" 
d="M635 700h131l-420 -710h-131zM401 485q0 -51 -14.5 -91t-39.5 -67.5t-59.5 -42t-73.5 -14.5q-41 0 -75.5 13.5t-59 40.5t-38.5 67t-14 92q0 51 14.5 90.5t40 67t59.5 41.5t74 14q41 0 75 -14t58.5 -41t38.5 -66t14 -90zM273 482q0 55 -14.5 84t-44.5 29q-29 0 -44 -28.5
t-15 -82.5q0 -113 59 -113q30 0 44.5 28.5t14.5 82.5zM955 209q0 -51 -14.5 -91t-39.5 -67.5t-59.5 -42t-73.5 -14.5q-41 0 -75.5 13.5t-59 40.5t-38.5 67t-14 92q0 51 14.5 90.5t40 67t59.5 41.5t74 14q41 0 75 -14t58.5 -41t38.5 -66t14 -90zM1379 209q0 -51 -14.5 -91
t-39.5 -67.5t-59.5 -42t-73.5 -14.5q-41 0 -75.5 13.5t-59 40.5t-38.5 67t-14 92q0 51 14.5 90.5t40 67t59.5 41.5t74 14q41 0 75 -14t58.5 -41t38.5 -66t14 -90zM827 206q0 55 -14.5 84t-44.5 29q-29 0 -44 -28.5t-15 -82.5q0 -113 59 -113q30 0 44.5 28.5t14.5 82.5z
M1251 206q0 55 -14.5 84t-44.5 29q-29 0 -44 -28.5t-15 -82.5q0 -113 59 -113q30 0 44.5 28.5t14.5 82.5z" />
    <glyph glyph-name="guilsinglleft" unicode="&#x2039;" horiz-adv-x="332" 
d="M161 252l143 -204h-153l-115 158v92l115 158h153z" />
    <glyph glyph-name="guilsinglright" unicode="&#x203a;" horiz-adv-x="332" 
d="M296 298v-92l-115 -158h-153l143 204l-143 204h153z" />
    <glyph glyph-name="fraction" unicode="&#x2044;" horiz-adv-x="260" 
d="M275 700h131l-420 -710h-131z" />
    <glyph glyph-name="Euro" unicode="&#x20ac;" horiz-adv-x="625" 
d="M415 112q41 0 74.5 4.5t68.5 16.5l27 -115q-38 -14 -80.5 -21t-95.5 -7t-101 15t-87.5 44t-68.5 72t-44 100h-80l20 92h45q-1 8 -1 16v16v17.5t1 16.5h-65l20 92h61q17 55 47 97.5t70.5 72t89 44.5t101.5 15t98 -7t81 -24l-34 -113q-30 11 -64 16.5t-80 5.5
q-51 0 -93.5 -23.5t-65.5 -83.5h260l-20 -92h-258q-1 -8 -1 -16v-17v-16.5t1 -16.5h278l-20 -92h-240q23 -60 64.5 -84.5t91.5 -24.5z" />
    <glyph glyph-name="trademark" unicode="&#x2122;" horiz-adv-x="978" 
d="M398 596h-127v-320h-117v320h-127v94h371v-94zM911 690v-414h-111l5 241q0 17 0.5 33t1.5 30q-3 -12 -7 -27t-9 -31l-69 -246h-97l-64 246q-4 14 -9.5 33.5t-9.5 33.5q0 -14 -0.5 -33t0.5 -41l5 -239h-112v414h169l63 -223q3 -10 6.5 -25t7.5 -32q3 14 6.5 28t6.5 28
l60 224h157z" />
    <glyph glyph-name="minus" unicode="&#x2212;" horiz-adv-x="594" 
d="M538 309v-116h-482v116h482z" />
    <glyph glyph-name="uniF8FF" unicode="&#xf8ff;" horiz-adv-x="1137" 
d="M249 573q0 -22 -22 -22h-108v146q0 11 6.5 18t18.5 7q11 0 18 -7t7 -18v-102h58q22 0 22 -22zM265 636q0 37 26.5 61.5t66.5 24.5t66 -24t26 -62t-26 -63t-66 -25t-66.5 25t-26.5 63zM566 600q0 9 -13 12t-28 7.5t-28 15t-13 33.5q0 24 17.5 39t52.5 15q23 0 41.5 -8
t18.5 -26q0 -19 -20 -19q-11 0 -21 5.5t-24 5.5q-16 0 -16 -10q0 -7 13 -9.5t28 -7.5t28 -16t13 -35q0 -25 -19.5 -39.5t-51.5 -14.5q-30 0 -48 9t-18 26q0 20 22 20q12 0 20 -6t26 -6q20 0 20 9zM398 636q0 18 -11 29.5t-29 11.5q-19 0 -30.5 -11.5t-11.5 -29.5
q0 -17 11.5 -29.5t30.5 -12.5q18 0 29 11.5t11 30.5zM454 285l-81 85v-63q0 -11 -7.5 -18.5t-18.5 -7.5t-18 7.5t-7 18.5v146h32l81 -85v63q0 11 7 18t18 7t18.5 -7t7.5 -18v-146h-32zM987 334q0 9 -13 11.5t-28 7.5t-28 15t-13 34q0 25 18 39.5t53 14.5q23 0 41.5 -8.5
t18.5 -26.5q0 -19 -20 -19q-11 0 -21 5.5t-24 5.5q-16 0 -16 -9q0 -8 13 -10.5t28 -7.5t28 -16t13 -35q0 -25 -19.5 -39.5t-52.5 -14.5q-29 0 -47 9t-18 26q0 9 5.5 15t16.5 6t19 -6.5t26 -6.5q20 0 20 10zM261 281q-19 0 -25 15l-5 13h-70l-5 -13q-6 -15 -25 -15
q-14 0 -21 11t0 25l66 136h40l65 -136q6 -14 0 -25t-20 -11zM700 369q0 -38 -24.5 -61t-66.5 -23h-75v168h75q42 0 66.5 -23t24.5 -61zM861 369q0 -20 -22 -20h-48v-23h58q21 0 21 -21q0 -20 -21 -20h-109v168h109q10 0 15.5 -6t5.5 -15t-5.5 -15.5t-15.5 -6.5h-58v-20h48
q11 0 16.5 -6.5t5.5 -14.5zM649 368q0 18 -10.5 29t-30.5 11h-23v-80h23q20 0 30.5 11.5t10.5 28.5zM217 343l-21 51l-21 -51h42zM158 22v104h-36q-11 0 -16.5 7t-5.5 15q0 9 5.5 15.5t16.5 6.5h122q11 0 17.5 -6t6.5 -16q0 -9 -6.5 -15.5t-17.5 -6.5h-35v-104
q0 -11 -7.5 -18t-18.5 -7t-18 7t-7 18zM455 169l-63 -100v-47q0 -11 -7 -18t-18 -7t-18.5 7t-7.5 18v47l-62 100h58l31 -59l30 59h57zM555 42h-23v-20q0 -11 -6.5 -18t-17.5 -7t-19 7t-8 18v147h74q33 0 51 -18.5t18 -44.5q0 -27 -18 -45.5t-51 -18.5zM780 85q0 -20 -22 -20
h-48v-22h58q22 0 22 -22q0 -9 -5.5 -15t-16.5 -6h-109v169h109q11 0 16.5 -6t5.5 -15t-5.5 -15.5t-16.5 -6.5h-58v-20h48q11 0 16.5 -6.5t5.5 -14.5zM551 84q25 0 25 22q0 9 -6 15.5t-19 6.5h-19v-44h19z" />
    <glyph glyph-name="acute.case" horiz-adv-x="365" 
d="M315 874l-148 -120h-117v15l119 120h146v-15z" />
    <glyph glyph-name="acutecomb.case" 
d="M-50 874l-148 -120h-117v15l119 120h146v-15z" />
    <glyph glyph-name="caron.case" horiz-adv-x="600" 
d="M413 889v-15l-121 -120h-109l-121 120v15h120l56 -52l55 52h120z" />
    <glyph glyph-name="circumflex.case" horiz-adv-x="600" 
d="M413 769v-15h-120l-55 52l-56 -52h-120v15l121 120h109z" />
    <glyph glyph-name="dieresis.case" horiz-adv-x="600" 
d="M56 820q0 38 24 58t56 20t56 -20t24 -58q0 -37 -24 -57t-56 -20t-56 20t-24 57zM299 820q0 38 24 58t56 20t56 -20t24 -58q0 -37 -24 -57t-56 -20t-56 20t-24 57z" />
    <glyph glyph-name="grave.case" horiz-adv-x="600" 
d="M315 754h-117l-148 120v15h146l119 -120v-15z" />
    <glyph glyph-name="gravecomb.case" 
d="M-50 754h-117l-148 120v15h146l119 -120v-15z" />
    <glyph glyph-name="ring.case" horiz-adv-x="600" 
d="M155 734q-66 0 -101 35.5t-35 90.5t35 90t101 35t100.5 -35t34.5 -90t-34.5 -90.5t-100.5 -35.5zM155 813q20 0 31.5 13.5t11.5 33.5t-11.5 33t-31.5 13q-21 0 -32.5 -13t-11.5 -33t11.5 -33.5t32.5 -13.5z" />
    <glyph glyph-name="tilde.case" horiz-adv-x="600" 
d="M92 754q0 39 9.5 65.5t26 42.5t37.5 23t44 7q27 0 48 -8t38 -18t31 -18t26 -8q18 0 29 11.5t11 36.5h92q0 -40 -9.5 -66.5t-26 -42.5t-37.5 -22.5t-44 -6.5q-24 0 -43.5 8t-37 18t-33 18t-30.5 8q-39 0 -39 -48h-92z" />
    <glyph glyph-name="tildecomb.case" 
d="M-484 754q0 39 9.5 65.5t26 42.5t37.5 23t44 7q27 0 48 -8t38 -18t31 -18t26 -8q18 0 29 11.5t11 36.5h92q0 -40 -9.5 -66.5t-26 -42.5t-37.5 -22.5t-44 -6.5q-24 0 -43.5 8t-37 18t-33 18t-30.5 8q-39 0 -39 -48h-92z" />
    <glyph glyph-name="uni0302.case" 
d="M-62 769v-15h-120l-55 52l-56 -52h-120v15l121 120h109z" />
    <glyph glyph-name="uni0308.case" 
d="M-459 820q0 38 24 58t56 20t56 -20t24 -58q0 -37 -24 -57t-56 -20t-56 20t-24 57zM-216 820q0 38 24 58t56 20t56 -20t24 -58q0 -37 -24 -57t-56 -20t-56 20t-24 57z" />
    <glyph glyph-name="uni030A.case" 
d="M-154 734q-66 0 -101 35.5t-35 90.5t35 90t101 35t100.5 -35t34.5 -90t-34.5 -90.5t-100.5 -35.5zM-154 813q20 0 31.5 13.5t11.5 33.5t-11.5 33t-31.5 13q-21 0 -32.5 -13t-11.5 -33t11.5 -33.5t32.5 -13.5z" />
    <glyph glyph-name="uni030C.case" 
d="M-62 889v-15l-121 -120h-109l-121 120v15h120l56 -52l55 52h120z" />
    <glyph glyph-name="uni0337.case" 
d="M-121 493l47 -100l-322 -154l-47 100z" />
    <glyph glyph-name="uni0338.case" 
d="M-122 717l72 -72l-672 -672l-72 72z" />
    </font>
</defs>
</svg>
